<svg width="38" height="38" viewBox="0 0 38 38" fill="none" xmlns="http://www.w3.org/2000/svg">
<g clip-path="url(#clip0_2234_11540)">
<mask id="mask0_2234_11540" style="mask-type:luminance" maskUnits="userSpaceOnUse" x="0" y="0" width="38" height="38">
<path d="M19 36C21.2329 36.0027 23.4443 35.5643 25.5072 34.7098C27.5701 33.8553 29.4438 32.6016 31.0207 31.0207C32.6016 29.4438 33.8553 27.5701 34.7098 25.5072C35.5643 23.4443 36.0027 21.2329 36 19C36.0027 16.7671 35.5643 14.5557 34.7098 12.4928C33.8553 10.4299 32.6016 8.5562 31.0207 6.97931C29.4438 5.39845 27.5701 4.14475 25.5072 3.29024C23.4443 2.43573 21.2329 1.99726 19 2.00001C16.7671 1.99726 14.5557 2.43573 12.4928 3.29024C10.4299 4.14475 8.5562 5.39845 6.97931 6.97931C5.39845 8.5562 4.14475 10.4299 3.29024 12.4928C2.43573 14.5557 1.99726 16.7671 2.00001 19C1.99726 21.2329 2.43573 23.4443 3.29024 25.5072C4.14475 27.5701 5.39845 29.4438 6.97931 31.0207C8.5562 32.6016 10.4299 33.8553 12.4928 34.7098C14.5557 35.5643 16.7671 36.0027 19 36Z" fill="white" stroke="white" stroke-width="3" stroke-linejoin="round"/>
<path d="M12.1992 19.0023L17.2992 24.1023L27.4992 13.9023" stroke="black" stroke-width="3" stroke-linecap="round" stroke-linejoin="round"/>
</mask>
<g mask="url(#mask0_2234_11540)">
<path d="M-1.39844 -1.40234H39.4015V39.3976H-1.39844V-1.40234Z" fill="#4A90E2"/>
</g>
</g>
<defs>
<clipPath id="clip0_2234_11540">
<rect width="38" height="38" fill="white"/>
</clipPath>
</defs>
</svg>
