<svg width="21" height="21" viewBox="0 0 21 21" fill="none" xmlns="http://www.w3.org/2000/svg">
<path d="M11.1562 10.1719C11.1562 7.4536 8.95265 5.25 6.23438 5.25C3.5161 5.25 1.3125 7.4536 1.3125 10.1719V14.7656C1.3125 17.4839 3.5161 19.6875 6.23438 19.6875C8.95265 19.6875 11.1562 17.4839 11.1562 14.7656V10.1719Z" fill="#D3D3D3"/>
<path d="M11.1562 10.1719C11.1562 7.4536 8.95265 5.25 6.23438 5.25C3.5161 5.25 1.3125 7.4536 1.3125 10.1719V14.7656C1.3125 17.4839 3.5161 19.6875 6.23438 19.6875C8.95265 19.6875 11.1562 17.4839 11.1562 14.7656V10.1719Z" fill="url(#paint0_radial_2208_36198)"/>
<path d="M11.1562 10.1719C11.1562 7.4536 8.95265 5.25 6.23438 5.25C3.5161 5.25 1.3125 7.4536 1.3125 10.1719V14.7656C1.3125 17.4839 3.5161 19.6875 6.23438 19.6875C8.95265 19.6875 11.1562 17.4839 11.1562 14.7656V10.1719Z" fill="url(#paint1_linear_2208_36198)"/>
<path d="M11.1562 10.1719C11.1562 7.4536 8.95265 5.25 6.23438 5.25C3.5161 5.25 1.3125 7.4536 1.3125 10.1719V14.7656C1.3125 17.4839 3.5161 19.6875 6.23438 19.6875C8.95265 19.6875 11.1562 17.4839 11.1562 14.7656V10.1719Z" fill="url(#paint2_radial_2208_36198)"/>
<path d="M11.1562 10.1719C11.1562 7.4536 8.95265 5.25 6.23438 5.25C3.5161 5.25 1.3125 7.4536 1.3125 10.1719V14.7656C1.3125 17.4839 3.5161 19.6875 6.23438 19.6875C8.95265 19.6875 11.1562 17.4839 11.1562 14.7656V10.1719Z" fill="url(#paint3_radial_2208_36198)"/>
<path d="M11.1562 10.1719C11.1562 7.4536 8.95265 5.25 6.23438 5.25C3.5161 5.25 1.3125 7.4536 1.3125 10.1719V14.7656C1.3125 17.4839 3.5161 19.6875 6.23438 19.6875C8.95265 19.6875 11.1562 17.4839 11.1562 14.7656V10.1719Z" fill="url(#paint4_radial_2208_36198)"/>
<path d="M11.1562 10.1719C11.1562 7.4536 8.95265 5.25 6.23438 5.25C3.5161 5.25 1.3125 7.4536 1.3125 10.1719V14.7656C1.3125 17.4839 3.5161 19.6875 6.23438 19.6875C8.95265 19.6875 11.1562 17.4839 11.1562 14.7656V10.1719Z" fill="url(#paint5_radial_2208_36198)"/>
<path d="M11.1562 10.1719C11.1562 7.4536 8.95265 5.25 6.23438 5.25C3.5161 5.25 1.3125 7.4536 1.3125 10.1719V14.7656C1.3125 17.4839 3.5161 19.6875 6.23438 19.6875C8.95265 19.6875 11.1562 17.4839 11.1562 14.7656V10.1719Z" fill="url(#paint6_radial_2208_36198)"/>
<g filter="url(#filter0_f_2208_36198)">
<path d="M10.7447 8.88994C10.7447 8.57534 10.4897 8.32031 10.1751 8.32031C9.8605 8.32031 9.60547 8.57534 9.60547 8.88994V15.4065C9.60547 15.7211 9.8605 15.9761 10.1751 15.9761C10.4897 15.9761 10.7447 15.7211 10.7447 15.4065V8.88994Z" fill="#6F6873"/>
</g>
<path d="M19.6875 10.1719C19.6875 7.4536 17.4839 5.25 14.7656 5.25C12.0473 5.25 9.84375 7.4536 9.84375 10.1719V14.7656C9.84375 17.4839 12.0473 19.6875 14.7656 19.6875C17.4839 19.6875 19.6875 17.4839 19.6875 14.7656V10.1719Z" fill="url(#paint7_radial_2208_36198)"/>
<path d="M19.6875 10.1719C19.6875 7.4536 17.4839 5.25 14.7656 5.25C12.0473 5.25 9.84375 7.4536 9.84375 10.1719V14.7656C9.84375 17.4839 12.0473 19.6875 14.7656 19.6875C17.4839 19.6875 19.6875 17.4839 19.6875 14.7656V10.1719Z" fill="url(#paint8_linear_2208_36198)"/>
<path d="M19.6875 10.1719C19.6875 7.4536 17.4839 5.25 14.7656 5.25C12.0473 5.25 9.84375 7.4536 9.84375 10.1719V14.7656C9.84375 17.4839 12.0473 19.6875 14.7656 19.6875C17.4839 19.6875 19.6875 17.4839 19.6875 14.7656V10.1719Z" fill="url(#paint9_radial_2208_36198)"/>
<path d="M15.0938 10.8281C15.0938 9.5596 14.0654 8.53125 12.7969 8.53125C11.5283 8.53125 10.5 9.5596 10.5 10.8281V14.1094C10.5 15.3779 11.5283 16.4062 12.7969 16.4062C14.0654 16.4062 15.0938 15.3779 15.0938 14.1094V10.8281Z" fill="url(#paint10_linear_2208_36198)"/>
<path d="M15.0938 10.8281C15.0938 9.5596 14.0654 8.53125 12.7969 8.53125C11.5283 8.53125 10.5 9.5596 10.5 10.8281V14.1094C10.5 15.3779 11.5283 16.4062 12.7969 16.4062C14.0654 16.4062 15.0938 15.3779 15.0938 14.1094V10.8281Z" fill="url(#paint11_radial_2208_36198)"/>
<path d="M6.60547 10.8281C6.60547 9.5596 5.57712 8.53125 4.30859 8.53125C3.04006 8.53125 2.01172 9.5596 2.01172 10.8281V14.1094C2.01172 15.3779 3.04006 16.4062 4.30859 16.4062C5.57712 16.4062 6.60547 15.3779 6.60547 14.1094V10.8281Z" fill="url(#paint12_linear_2208_36198)"/>
<path d="M6.60547 10.8281C6.60547 9.5596 5.57712 8.53125 4.30859 8.53125C3.04006 8.53125 2.01172 9.5596 2.01172 10.8281V14.1094C2.01172 15.3779 3.04006 16.4062 4.30859 16.4062C5.57712 16.4062 6.60547 15.3779 6.60547 14.1094V10.8281Z" fill="url(#paint13_radial_2208_36198)"/>
<path d="M5.7336 11.0659C5.97734 10.863 5.96609 10.4476 5.70848 10.1381C5.45087 9.82866 5.04444 9.74225 4.8007 9.94514C4.55696 10.148 4.56821 10.5634 4.82582 10.8729C5.08343 11.1823 5.48986 11.2688 5.7336 11.0659Z" fill="url(#paint14_radial_2208_36198)"/>
<path d="M14.2648 11.0659C14.5086 10.863 14.4973 10.4476 14.2397 10.1381C13.9821 9.82866 13.5757 9.74225 13.332 9.94514C13.0882 10.148 13.0995 10.5634 13.3571 10.8729C13.6147 11.1823 14.0211 11.2688 14.2648 11.0659Z" fill="url(#paint15_radial_2208_36198)"/>
<defs>
<filter id="filter0_f_2208_36198" x="9.00547" y="7.72031" width="2.34063" height="8.85625" filterUnits="userSpaceOnUse" color-interpolation-filters="sRGB">
<feFlood flood-opacity="0" result="BackgroundImageFix"/>
<feBlend mode="normal" in="SourceGraphic" in2="BackgroundImageFix" result="shape"/>
<feGaussianBlur stdDeviation="0.3" result="effect1_foregroundBlur_2208_36198"/>
</filter>
<radialGradient id="paint0_radial_2208_36198" cx="0" cy="0" r="1" gradientUnits="userSpaceOnUse" gradientTransform="translate(7.89546 8.85927) rotate(101.077) scale(13.8757 10.7306)">
<stop stop-color="#FAF7FC"/>
<stop offset="0.457" stop-color="#D8D0DD"/>
<stop offset="0.708" stop-color="#D0B3E3"/>
<stop offset="1" stop-color="#CFABE4"/>
</radialGradient>
<linearGradient id="paint1_linear_2208_36198" x1="-0.758625" y1="13.5352" x2="5.56697" y2="14.3922" gradientUnits="userSpaceOnUse">
<stop offset="0.399" stop-color="#9B969E"/>
<stop offset="1" stop-color="#9A959E" stop-opacity="0"/>
</linearGradient>
<radialGradient id="paint2_radial_2208_36198" cx="0" cy="0" r="1" gradientUnits="userSpaceOnUse" gradientTransform="translate(10.4245 15.4481) rotate(-133.794) scale(13.1661 14.2512)">
<stop offset="0.844" stop-color="#9A959E" stop-opacity="0"/>
<stop offset="0.949" stop-color="#949296"/>
</radialGradient>
<radialGradient id="paint3_radial_2208_36198" cx="0" cy="0" r="1" gradientUnits="userSpaceOnUse" gradientTransform="translate(12.5364 14.8151) rotate(-155.387) scale(5.63324 13.697)">
<stop offset="0.022" stop-color="#D1AFE5"/>
<stop offset="1" stop-color="#D1AFE5" stop-opacity="0"/>
</radialGradient>
<radialGradient id="paint4_radial_2208_36198" cx="0" cy="0" r="1" gradientUnits="userSpaceOnUse" gradientTransform="translate(10.6883 13.9171) rotate(180) scale(3.64307 10.3484)">
<stop stop-color="#ABA5B0"/>
<stop offset="1" stop-color="#ABA5B0" stop-opacity="0"/>
</radialGradient>
<radialGradient id="paint5_radial_2208_36198" cx="0" cy="0" r="1" gradientUnits="userSpaceOnUse" gradientTransform="translate(12.3252 15.3951) rotate(-137.153) scale(4.96891 13.6909)">
<stop stop-color="#B689D0"/>
<stop offset="1" stop-color="#B689D0" stop-opacity="0"/>
</radialGradient>
<radialGradient id="paint6_radial_2208_36198" cx="0" cy="0" r="1" gradientUnits="userSpaceOnUse" gradientTransform="translate(9.48814 7.92028) rotate(140.964) scale(2.30658 4.38748)">
<stop stop-color="#F3F2F4"/>
<stop offset="1" stop-color="#F3F2F4" stop-opacity="0"/>
</radialGradient>
<radialGradient id="paint7_radial_2208_36198" cx="0" cy="0" r="1" gradientUnits="userSpaceOnUse" gradientTransform="translate(16.7953 9.84366) rotate(103.51) scale(12.9923 10.0475)">
<stop stop-color="#FAF7FC"/>
<stop offset="0.457" stop-color="#D8D0DD"/>
<stop offset="0.708" stop-color="#D0B3E3"/>
<stop offset="1" stop-color="#CFABE4"/>
</radialGradient>
<linearGradient id="paint8_linear_2208_36198" x1="7.77262" y1="13.5352" x2="14.007" y2="14.1094" gradientUnits="userSpaceOnUse">
<stop offset="0.212" stop-color="#9B969E"/>
<stop offset="1" stop-color="#9A959E" stop-opacity="0"/>
</linearGradient>
<radialGradient id="paint9_radial_2208_36198" cx="0" cy="0" r="1" gradientUnits="userSpaceOnUse" gradientTransform="translate(18.0194 7.9202) rotate(140.964) scale(2.30658 4.38748)">
<stop stop-color="#F3F2F4"/>
<stop offset="1" stop-color="#F3F2F4" stop-opacity="0"/>
</radialGradient>
<linearGradient id="paint10_linear_2208_36198" x1="12.7969" y1="8.53125" x2="12.7969" y2="16.4062" gradientUnits="userSpaceOnUse">
<stop offset="0.354" stop-color="#232224"/>
<stop offset="1" stop-color="#623C86"/>
</linearGradient>
<radialGradient id="paint11_radial_2208_36198" cx="0" cy="0" r="1" gradientUnits="userSpaceOnUse" gradientTransform="translate(13.3914 12.0586) rotate(90) scale(4.34766 1.42658)">
<stop offset="0.354" stop-color="#443753"/>
<stop offset="1" stop-color="#433750" stop-opacity="0"/>
</radialGradient>
<linearGradient id="paint12_linear_2208_36198" x1="4.30859" y1="8.53125" x2="4.30859" y2="16.4062" gradientUnits="userSpaceOnUse">
<stop offset="0.354" stop-color="#232224"/>
<stop offset="1" stop-color="#623C86"/>
</linearGradient>
<radialGradient id="paint13_radial_2208_36198" cx="0" cy="0" r="1" gradientUnits="userSpaceOnUse" gradientTransform="translate(4.90316 12.0586) rotate(90) scale(4.34766 1.42658)">
<stop offset="0.354" stop-color="#443753"/>
<stop offset="1" stop-color="#433750" stop-opacity="0"/>
</radialGradient>
<radialGradient id="paint14_radial_2208_36198" cx="0" cy="0" r="1" gradientUnits="userSpaceOnUse" gradientTransform="translate(4.92062 10.0707) rotate(87.7401) scale(1.55981 1.64152)">
<stop stop-color="white"/>
<stop offset="1" stop-color="#F4F4F4" stop-opacity="0"/>
</radialGradient>
<radialGradient id="paint15_radial_2208_36198" cx="0" cy="0" r="1" gradientUnits="userSpaceOnUse" gradientTransform="translate(13.4524 10.0703) rotate(87.7401) scale(1.55981 1.64152)">
<stop stop-color="white"/>
<stop offset="1" stop-color="#F4F4F4" stop-opacity="0"/>
</radialGradient>
</defs>
</svg>
