<svg width="21" height="21" viewBox="0 0 21 21" fill="none" xmlns="http://www.w3.org/2000/svg">
<g filter="url(#filter0_i_2208_36225)">
<path d="M7.24219 7.19463V5.575C7.24219 5.33133 7.33898 5.09764 7.51128 4.92535C7.68358 4.75305 7.91727 4.65625 8.16094 4.65625H12.7114C12.955 4.65625 13.1887 4.75305 13.361 4.92535C13.5333 5.09764 13.6301 5.33133 13.6301 5.575V7.33244" stroke="url(#paint0_linear_2208_36225)" stroke-width="1.125"/>
</g>
<g filter="url(#filter1_f_2208_36225)">
<path d="M7.24219 7.08575V5.42544C7.24219 4.90569 7.66219 4.48438 8.17931 4.48438H12.8216C13.3394 4.48438 13.7588 4.90569 13.7588 5.42609V7.22684" stroke="url(#paint1_linear_2208_36225)" stroke-width="0.3"/>
<path d="M7.24219 7.08575V5.42544C7.24219 4.90569 7.66219 4.48438 8.17931 4.48438H12.8216C13.3394 4.48438 13.7588 4.90569 13.7588 5.42609V7.22684" stroke="url(#paint2_linear_2208_36225)" stroke-width="0.3"/>
</g>
<g filter="url(#filter2_iii_2208_36225)">
<path d="M1.32422 8.87891C1.32422 8.26974 1.56621 7.68552 1.99696 7.25477C2.42771 6.82402 3.01192 6.58203 3.62109 6.58203H17.2586C17.8678 6.58203 18.452 6.82402 18.8828 7.25477C19.3135 7.68552 19.5555 8.26974 19.5555 8.87891V18.2922C19.5555 18.6403 19.4172 18.9741 19.1711 19.2202C18.9249 19.4664 18.5911 19.6047 18.243 19.6047H2.63737C2.28928 19.6047 1.95544 19.4664 1.7093 19.2202C1.46316 18.9741 1.32487 18.6403 1.32487 18.2922L1.32422 8.87891Z" fill="url(#paint3_linear_2208_36225)"/>
</g>
<g filter="url(#filter3_f_2208_36225)">
<path d="M13.3398 11.1953C13.3398 11.0648 13.3917 10.9396 13.484 10.8473C13.5763 10.755 13.7015 10.7031 13.832 10.7031H15.4628C15.5933 10.7031 15.7185 10.755 15.8108 10.8473C15.9031 10.9396 15.955 11.0648 15.955 11.1953V11.9795C15.955 12.3263 15.8172 12.6589 15.572 12.9041C15.3268 13.1493 14.9942 13.2871 14.6474 13.2871C14.3006 13.2871 13.968 13.1493 13.7228 12.9041C13.4776 12.6589 13.3398 12.3263 13.3398 11.9795V11.1953Z" fill="#DE2356"/>
</g>
<g filter="url(#filter4_i_2208_36225)">
<path d="M16.654 15.0781H4.21612C4.03636 15.0781 3.89062 15.2239 3.89062 15.4036C3.89062 15.5834 4.03636 15.7291 4.21612 15.7291H16.654C16.8338 15.7291 16.9795 15.5834 16.9795 15.4036C16.9795 15.2239 16.8338 15.0781 16.654 15.0781Z" fill="#C1AECA"/>
</g>
<g filter="url(#filter5_i_2208_36225)">
<path d="M19.4484 11.1641H1.43437C1.2894 11.1641 1.17188 11.2816 1.17188 11.4266V11.5526C1.17188 11.6975 1.2894 11.8151 1.43437 11.8151H19.4484C19.5934 11.8151 19.7109 11.6975 19.7109 11.5526V11.4266C19.7109 11.2816 19.5934 11.1641 19.4484 11.1641Z" fill="#CB236C"/>
<path d="M19.4484 11.1641H1.43437C1.2894 11.1641 1.17188 11.2816 1.17188 11.4266V11.5526C1.17188 11.6975 1.2894 11.8151 1.43437 11.8151H19.4484C19.5934 11.8151 19.7109 11.6975 19.7109 11.5526V11.4266C19.7109 11.2816 19.5934 11.1641 19.4484 11.1641Z" fill="url(#paint4_linear_2208_36225)"/>
</g>
<g filter="url(#filter6_i_2208_36225)">
<path d="M16.654 17.0391H4.21612C4.03636 17.0391 3.89062 17.1848 3.89062 17.3646C3.89062 17.5443 4.03636 17.6901 4.21612 17.6901H16.654C16.8338 17.6901 16.9795 17.5443 16.9795 17.3646C16.9795 17.1848 16.8338 17.0391 16.654 17.0391Z" fill="#C1AECA"/>
</g>
<g filter="url(#filter7_f_2208_36225)">
<path d="M19.4751 11.4219H3.99219" stroke="url(#paint5_linear_2208_36225)" stroke-width="0.1" stroke-linecap="round"/>
</g>
<g filter="url(#filter8_i_2208_36225)">
<path d="M4.54688 10.9922C4.54688 10.8617 4.59873 10.7365 4.69103 10.6442C4.78334 10.5519 4.90853 10.5 5.03906 10.5H6.66984C6.80038 10.5 6.92557 10.5519 7.01787 10.6442C7.11018 10.7365 7.16203 10.8617 7.16203 10.9922V11.7764C7.16203 12.1232 7.02427 12.4558 6.77905 12.701C6.53383 12.9462 6.20124 13.084 5.85445 13.084C5.50766 13.084 5.17507 12.9462 4.92986 12.701C4.68464 12.4558 4.54688 12.1232 4.54688 11.7764V10.9922Z" fill="#C4B3D4"/>
<path d="M4.54688 10.9922C4.54688 10.8617 4.59873 10.7365 4.69103 10.6442C4.78334 10.5519 4.90853 10.5 5.03906 10.5H6.66984C6.80038 10.5 6.92557 10.5519 7.01787 10.6442C7.11018 10.7365 7.16203 10.8617 7.16203 10.9922V11.7764C7.16203 12.1232 7.02427 12.4558 6.77905 12.701C6.53383 12.9462 6.20124 13.084 5.85445 13.084C5.50766 13.084 5.17507 12.9462 4.92986 12.701C4.68464 12.4558 4.54688 12.1232 4.54688 11.7764V10.9922Z" fill="url(#paint6_radial_2208_36225)"/>
<path d="M4.54688 10.9922C4.54688 10.8617 4.59873 10.7365 4.69103 10.6442C4.78334 10.5519 4.90853 10.5 5.03906 10.5H6.66984C6.80038 10.5 6.92557 10.5519 7.01787 10.6442C7.11018 10.7365 7.16203 10.8617 7.16203 10.9922V11.7764C7.16203 12.1232 7.02427 12.4558 6.77905 12.701C6.53383 12.9462 6.20124 13.084 5.85445 13.084C5.50766 13.084 5.17507 12.9462 4.92986 12.701C4.68464 12.4558 4.54688 12.1232 4.54688 11.7764V10.9922Z" fill="url(#paint7_radial_2208_36225)"/>
</g>
<g filter="url(#filter9_i_2208_36225)">
<path d="M13.7109 10.9922C13.7109 10.8617 13.7628 10.7365 13.8551 10.6442C13.9474 10.5519 14.0726 10.5 14.2031 10.5H15.8333C15.9638 10.5 16.089 10.5519 16.1813 10.6442C16.2736 10.7365 16.3254 10.8617 16.3254 10.9922V11.7764C16.3254 12.1231 16.1877 12.4556 15.9426 12.7008C15.6974 12.9459 15.3649 13.0837 15.0182 13.0837C14.6715 13.0837 14.339 12.9459 14.0938 12.7008C13.8487 12.4556 13.7109 12.1231 13.7109 11.7764V10.9922Z" fill="#C4B3D4"/>
<path d="M13.7109 10.9922C13.7109 10.8617 13.7628 10.7365 13.8551 10.6442C13.9474 10.5519 14.0726 10.5 14.2031 10.5H15.8333C15.9638 10.5 16.089 10.5519 16.1813 10.6442C16.2736 10.7365 16.3254 10.8617 16.3254 10.9922V11.7764C16.3254 12.1231 16.1877 12.4556 15.9426 12.7008C15.6974 12.9459 15.3649 13.0837 15.0182 13.0837C14.6715 13.0837 14.339 12.9459 14.0938 12.7008C13.8487 12.4556 13.7109 12.1231 13.7109 11.7764V10.9922Z" fill="url(#paint8_radial_2208_36225)"/>
<path d="M13.7109 10.9922C13.7109 10.8617 13.7628 10.7365 13.8551 10.6442C13.9474 10.5519 14.0726 10.5 14.2031 10.5H15.8333C15.9638 10.5 16.089 10.5519 16.1813 10.6442C16.2736 10.7365 16.3254 10.8617 16.3254 10.9922V11.7764C16.3254 12.1231 16.1877 12.4556 15.9426 12.7008C15.6974 12.9459 15.3649 13.0837 15.0182 13.0837C14.6715 13.0837 14.339 12.9459 14.0938 12.7008C13.8487 12.4556 13.7109 12.1231 13.7109 11.7764V10.9922Z" fill="url(#paint9_radial_2208_36225)"/>
</g>
<g filter="url(#filter10_f_2208_36225)">
<path d="M4.28125 15.3359H16.7014" stroke="url(#paint10_linear_2208_36225)" stroke-width="0.1" stroke-linecap="round"/>
</g>
<g filter="url(#filter11_f_2208_36225)">
<path d="M4.28125 17.293H16.7014" stroke="url(#paint11_linear_2208_36225)" stroke-width="0.1" stroke-linecap="round"/>
</g>
<g filter="url(#filter12_f_2208_36225)">
<path d="M17.758 7.80469H5.0215C4.61267 7.80469 4.28125 8.13596 4.28125 8.54461C4.28125 8.95326 4.61267 9.28453 5.0215 9.28453H17.758C18.1668 9.28453 18.4983 8.95326 18.4983 8.54461C18.4983 8.13596 18.1668 7.80469 17.758 7.80469Z" fill="url(#paint12_linear_2208_36225)"/>
</g>
<defs>
<filter id="filter0_i_2208_36225" x="6.67969" y="3.84375" width="7.51172" height="3.48828" filterUnits="userSpaceOnUse" color-interpolation-filters="sRGB">
<feFlood flood-opacity="0" result="BackgroundImageFix"/>
<feBlend mode="normal" in="SourceGraphic" in2="BackgroundImageFix" result="shape"/>
<feColorMatrix in="SourceAlpha" type="matrix" values="0 0 0 0 0 0 0 0 0 0 0 0 0 0 0 0 0 0 127 0" result="hardAlpha"/>
<feOffset dy="-0.25"/>
<feGaussianBlur stdDeviation="0.125"/>
<feComposite in2="hardAlpha" operator="arithmetic" k2="-1" k3="1"/>
<feColorMatrix type="matrix" values="0 0 0 0 0.309804 0 0 0 0 0.160784 0 0 0 0 0.380392 0 0 0 1 0"/>
<feBlend mode="normal" in2="shape" result="effect1_innerShadow_2208_36225"/>
</filter>
<filter id="filter1_f_2208_36225" x="6.79375" y="4.03594" width="7.41641" height="3.49063" filterUnits="userSpaceOnUse" color-interpolation-filters="sRGB">
<feFlood flood-opacity="0" result="BackgroundImageFix"/>
<feBlend mode="normal" in="SourceGraphic" in2="BackgroundImageFix" result="shape"/>
<feGaussianBlur stdDeviation="0.15" result="effect1_foregroundBlur_2208_36225"/>
</filter>
<filter id="filter2_iii_2208_36225" x="1.32422" y="6.08203" width="19.2305" height="13.7734" filterUnits="userSpaceOnUse" color-interpolation-filters="sRGB">
<feFlood flood-opacity="0" result="BackgroundImageFix"/>
<feBlend mode="normal" in="SourceGraphic" in2="BackgroundImageFix" result="shape"/>
<feColorMatrix in="SourceAlpha" type="matrix" values="0 0 0 0 0 0 0 0 0 0 0 0 0 0 0 0 0 0 127 0" result="hardAlpha"/>
<feOffset dx="1"/>
<feGaussianBlur stdDeviation="0.5"/>
<feComposite in2="hardAlpha" operator="arithmetic" k2="-1" k3="1"/>
<feColorMatrix type="matrix" values="0 0 0 0 0.854902 0 0 0 0 0.282353 0 0 0 0 0.305882 0 0 0 1 0"/>
<feBlend mode="normal" in2="shape" result="effect1_innerShadow_2208_36225"/>
<feColorMatrix in="SourceAlpha" type="matrix" values="0 0 0 0 0 0 0 0 0 0 0 0 0 0 0 0 0 0 127 0" result="hardAlpha"/>
<feOffset dy="-0.5"/>
<feGaussianBlur stdDeviation="0.5"/>
<feComposite in2="hardAlpha" operator="arithmetic" k2="-1" k3="1"/>
<feColorMatrix type="matrix" values="0 0 0 0 0.882353 0 0 0 0 0.164706 0 0 0 0 0.4 0 0 0 1 0"/>
<feBlend mode="normal" in2="effect1_innerShadow_2208_36225" result="effect2_innerShadow_2208_36225"/>
<feColorMatrix in="SourceAlpha" type="matrix" values="0 0 0 0 0 0 0 0 0 0 0 0 0 0 0 0 0 0 127 0" result="hardAlpha"/>
<feOffset dy="0.25"/>
<feGaussianBlur stdDeviation="0.375"/>
<feComposite in2="hardAlpha" operator="arithmetic" k2="-1" k3="1"/>
<feColorMatrix type="matrix" values="0 0 0 0 0.858824 0 0 0 0 0.223529 0 0 0 0 0.45098 0 0 0 1 0"/>
<feBlend mode="normal" in2="effect2_innerShadow_2208_36225" result="effect3_innerShadow_2208_36225"/>
</filter>
<filter id="filter3_f_2208_36225" x="12.5898" y="9.95312" width="4.11328" height="4.08594" filterUnits="userSpaceOnUse" color-interpolation-filters="sRGB">
<feFlood flood-opacity="0" result="BackgroundImageFix"/>
<feBlend mode="normal" in="SourceGraphic" in2="BackgroundImageFix" result="shape"/>
<feGaussianBlur stdDeviation="0.375" result="effect1_foregroundBlur_2208_36225"/>
</filter>
<filter id="filter4_i_2208_36225" x="3.89062" y="14.9281" width="13.0898" height="0.802344" filterUnits="userSpaceOnUse" color-interpolation-filters="sRGB">
<feFlood flood-opacity="0" result="BackgroundImageFix"/>
<feBlend mode="normal" in="SourceGraphic" in2="BackgroundImageFix" result="shape"/>
<feColorMatrix in="SourceAlpha" type="matrix" values="0 0 0 0 0 0 0 0 0 0 0 0 0 0 0 0 0 0 127 0" result="hardAlpha"/>
<feOffset dy="-0.15"/>
<feGaussianBlur stdDeviation="0.125"/>
<feComposite in2="hardAlpha" operator="arithmetic" k2="-1" k3="1"/>
<feColorMatrix type="matrix" values="0 0 0 0 0.752941 0 0 0 0 0.627451 0 0 0 0 0.823529 0 0 0 1 0"/>
<feBlend mode="normal" in2="shape" result="effect1_innerShadow_2208_36225"/>
</filter>
<filter id="filter5_i_2208_36225" x="1.17188" y="11.1641" width="18.5391" height="0.777344" filterUnits="userSpaceOnUse" color-interpolation-filters="sRGB">
<feFlood flood-opacity="0" result="BackgroundImageFix"/>
<feBlend mode="normal" in="SourceGraphic" in2="BackgroundImageFix" result="shape"/>
<feColorMatrix in="SourceAlpha" type="matrix" values="0 0 0 0 0 0 0 0 0 0 0 0 0 0 0 0 0 0 127 0" result="hardAlpha"/>
<feOffset dy="0.125"/>
<feGaussianBlur stdDeviation="0.125"/>
<feComposite in2="hardAlpha" operator="arithmetic" k2="-1" k3="1"/>
<feColorMatrix type="matrix" values="0 0 0 0 0.803922 0 0 0 0 0.101961 0 0 0 0 0.298039 0 0 0 1 0"/>
<feBlend mode="normal" in2="shape" result="effect1_innerShadow_2208_36225"/>
</filter>
<filter id="filter6_i_2208_36225" x="3.89062" y="16.8891" width="13.0898" height="0.802344" filterUnits="userSpaceOnUse" color-interpolation-filters="sRGB">
<feFlood flood-opacity="0" result="BackgroundImageFix"/>
<feBlend mode="normal" in="SourceGraphic" in2="BackgroundImageFix" result="shape"/>
<feColorMatrix in="SourceAlpha" type="matrix" values="0 0 0 0 0 0 0 0 0 0 0 0 0 0 0 0 0 0 127 0" result="hardAlpha"/>
<feOffset dy="-0.15"/>
<feGaussianBlur stdDeviation="0.125"/>
<feComposite in2="hardAlpha" operator="arithmetic" k2="-1" k3="1"/>
<feColorMatrix type="matrix" values="0 0 0 0 0.752941 0 0 0 0 0.627451 0 0 0 0 0.823529 0 0 0 1 0"/>
<feBlend mode="normal" in2="shape" result="effect1_innerShadow_2208_36225"/>
</filter>
<filter id="filter7_f_2208_36225" x="3.81641" y="11.2461" width="15.832" height="0.351562" filterUnits="userSpaceOnUse" color-interpolation-filters="sRGB">
<feFlood flood-opacity="0" result="BackgroundImageFix"/>
<feBlend mode="normal" in="SourceGraphic" in2="BackgroundImageFix" result="shape"/>
<feGaussianBlur stdDeviation="0.0625" result="effect1_foregroundBlur_2208_36225"/>
</filter>
<filter id="filter8_i_2208_36225" x="4.54688" y="10.5" width="2.86328" height="2.83594" filterUnits="userSpaceOnUse" color-interpolation-filters="sRGB">
<feFlood flood-opacity="0" result="BackgroundImageFix"/>
<feBlend mode="normal" in="SourceGraphic" in2="BackgroundImageFix" result="shape"/>
<feColorMatrix in="SourceAlpha" type="matrix" values="0 0 0 0 0 0 0 0 0 0 0 0 0 0 0 0 0 0 127 0" result="hardAlpha"/>
<feOffset dx="0.25" dy="0.25"/>
<feGaussianBlur stdDeviation="0.25"/>
<feComposite in2="hardAlpha" operator="arithmetic" k2="-1" k3="1"/>
<feColorMatrix type="matrix" values="0 0 0 0 0.670588 0 0 0 0 0.592157 0 0 0 0 0.709804 0 0 0 1 0"/>
<feBlend mode="normal" in2="shape" result="effect1_innerShadow_2208_36225"/>
</filter>
<filter id="filter9_i_2208_36225" x="13.7109" y="10.5" width="2.86328" height="2.83203" filterUnits="userSpaceOnUse" color-interpolation-filters="sRGB">
<feFlood flood-opacity="0" result="BackgroundImageFix"/>
<feBlend mode="normal" in="SourceGraphic" in2="BackgroundImageFix" result="shape"/>
<feColorMatrix in="SourceAlpha" type="matrix" values="0 0 0 0 0 0 0 0 0 0 0 0 0 0 0 0 0 0 127 0" result="hardAlpha"/>
<feOffset dx="0.25" dy="0.25"/>
<feGaussianBlur stdDeviation="0.25"/>
<feComposite in2="hardAlpha" operator="arithmetic" k2="-1" k3="1"/>
<feColorMatrix type="matrix" values="0 0 0 0 0.670588 0 0 0 0 0.592157 0 0 0 0 0.709804 0 0 0 1 0"/>
<feBlend mode="normal" in2="shape" result="effect1_innerShadow_2208_36225"/>
</filter>
<filter id="filter10_f_2208_36225" x="4.13047" y="15.1852" width="12.7195" height="0.301563" filterUnits="userSpaceOnUse" color-interpolation-filters="sRGB">
<feFlood flood-opacity="0" result="BackgroundImageFix"/>
<feBlend mode="normal" in="SourceGraphic" in2="BackgroundImageFix" result="shape"/>
<feGaussianBlur stdDeviation="0.05" result="effect1_foregroundBlur_2208_36225"/>
</filter>
<filter id="filter11_f_2208_36225" x="4.13047" y="17.1422" width="12.7195" height="0.301563" filterUnits="userSpaceOnUse" color-interpolation-filters="sRGB">
<feFlood flood-opacity="0" result="BackgroundImageFix"/>
<feBlend mode="normal" in="SourceGraphic" in2="BackgroundImageFix" result="shape"/>
<feGaussianBlur stdDeviation="0.05" result="effect1_foregroundBlur_2208_36225"/>
</filter>
<filter id="filter12_f_2208_36225" x="3.53125" y="7.05469" width="15.7188" height="2.98047" filterUnits="userSpaceOnUse" color-interpolation-filters="sRGB">
<feFlood flood-opacity="0" result="BackgroundImageFix"/>
<feBlend mode="normal" in="SourceGraphic" in2="BackgroundImageFix" result="shape"/>
<feGaussianBlur stdDeviation="0.375" result="effect1_foregroundBlur_2208_36225"/>
</filter>
<linearGradient id="paint0_linear_2208_36225" x1="10.4362" y1="4.38981" x2="10.4362" y2="7.33244" gradientUnits="userSpaceOnUse">
<stop stop-color="#5C486E"/>
<stop offset="1" stop-color="#4B3341"/>
</linearGradient>
<linearGradient id="paint1_linear_2208_36225" x1="13.9622" y1="4.89519" x2="8.5665" y2="6.57847" gradientUnits="userSpaceOnUse">
<stop stop-color="#7B6C89"/>
<stop offset="1" stop-color="#7B6C89" stop-opacity="0"/>
</linearGradient>
<linearGradient id="paint2_linear_2208_36225" x1="7.24219" y1="6.93481" x2="8.18194" y2="4.487" gradientUnits="userSpaceOnUse">
<stop stop-color="#7B6C89"/>
<stop offset="1" stop-color="#7B6C89" stop-opacity="0"/>
</linearGradient>
<linearGradient id="paint3_linear_2208_36225" x1="10.4402" y1="10.2944" x2="10.4402" y2="19.6047" gradientUnits="userSpaceOnUse">
<stop stop-color="#FF417D"/>
<stop offset="1" stop-color="#F2295E"/>
</linearGradient>
<linearGradient id="paint4_linear_2208_36225" x1="1.34578" y1="11.8151" x2="4.83244" y2="11.8151" gradientUnits="userSpaceOnUse">
<stop stop-color="#B14757"/>
<stop offset="1" stop-color="#B14757" stop-opacity="0"/>
</linearGradient>
<linearGradient id="paint5_linear_2208_36225" x1="-nan" y1="-nan" x2="-nan" y2="-nan" gradientUnits="userSpaceOnUse">
<stop stop-color="#E65F7C"/>
<stop offset="1" stop-color="#E65F7C" stop-opacity="0"/>
</linearGradient>
<radialGradient id="paint6_radial_2208_36225" cx="0" cy="0" r="1" gradientUnits="userSpaceOnUse" gradientTransform="translate(5.85412 11.0814) rotate(90) scale(2.00261 2.48788)">
<stop offset="0.457" stop-color="#C5B4D5" stop-opacity="0"/>
<stop offset="1" stop-color="#B474B3"/>
</radialGradient>
<radialGradient id="paint7_radial_2208_36225" cx="0" cy="0" r="1" gradientUnits="userSpaceOnUse" gradientTransform="translate(7.16172 10.5875) rotate(135.956) scale(1.06433 0.29232)">
<stop stop-color="#DED3E3"/>
<stop offset="1" stop-color="#DED3E3" stop-opacity="0"/>
</radialGradient>
<radialGradient id="paint8_radial_2208_36225" cx="0" cy="0" r="1" gradientUnits="userSpaceOnUse" gradientTransform="translate(15.0182 11.0814) rotate(90) scale(2.00261 2.48788)">
<stop offset="0.457" stop-color="#C5B4D5" stop-opacity="0"/>
<stop offset="1" stop-color="#B474B3"/>
</radialGradient>
<radialGradient id="paint9_radial_2208_36225" cx="0" cy="0" r="1" gradientUnits="userSpaceOnUse" gradientTransform="translate(16.3252 10.5877) rotate(135.956) scale(1.06433 0.29232)">
<stop stop-color="#DED3E3"/>
<stop offset="1" stop-color="#DED3E3" stop-opacity="0"/>
</radialGradient>
<linearGradient id="paint10_linear_2208_36225" x1="-nan" y1="-nan" x2="-nan" y2="-nan" gradientUnits="userSpaceOnUse">
<stop stop-color="#D6C7DE"/>
<stop offset="1" stop-color="#C1ADCC"/>
</linearGradient>
<linearGradient id="paint11_linear_2208_36225" x1="-nan" y1="-nan" x2="-nan" y2="-nan" gradientUnits="userSpaceOnUse">
<stop stop-color="#D6C7DE"/>
<stop offset="1" stop-color="#C1ADCC"/>
</linearGradient>
<linearGradient id="paint12_linear_2208_36225" x1="18.4983" y1="8.93213" x2="2.36041" y2="8.93213" gradientUnits="userSpaceOnUse">
<stop stop-color="#FF6891"/>
<stop offset="1" stop-color="#FF6891" stop-opacity="0"/>
</linearGradient>
</defs>
</svg>
