<svg width="21" height="22" viewBox="0 0 21 22" fill="none" xmlns="http://www.w3.org/2000/svg">
<g filter="url(#filter0_iii_2208_36165)">
<path d="M14.4716 4.51124C10.0261 2.29312 4.75711 3.14952 2.35655 7.02861C-0.0440147 10.9077 1.48439 16.0717 5.77364 18.5609C7.88086 19.7835 11.2829 21.0323 12.6649 19.3668C14.0201 17.7353 12.0218 16.7024 12.4877 15.7987C13.2385 14.3465 16.5972 16.2516 18.7943 13.9041C21.269 11.2568 18.7995 6.67162 14.4716 4.51124ZM15.8018 13.0366C14.6448 13.0366 13.8134 12.211 13.8134 11.0908C13.8134 9.97058 14.6448 9.14568 15.8018 9.14568C16.9588 9.14568 17.7902 9.97124 17.7902 11.0908C17.7902 12.211 16.9581 13.0366 15.8018 13.0366Z" fill="url(#paint0_linear_2208_36165)"/>
</g>
<g filter="url(#filter1_f_2208_36165)">
<path d="M5.32 10.5697C5.70117 10.5697 6.06672 10.4183 6.33625 10.1487C6.60577 9.87922 6.75719 9.51367 6.75719 9.1325C6.75719 8.75133 6.60577 8.38578 6.33625 8.11626C6.06672 7.84673 5.70117 7.69531 5.32 7.69531C4.93883 7.69531 4.57328 7.84673 4.30375 8.11626C4.03423 8.38578 3.88281 8.75133 3.88281 9.1325C3.88281 9.51367 4.03423 9.87922 4.30375 10.1487C4.57328 10.4183 4.93883 10.5697 5.32 10.5697Z" fill="#CB758C"/>
</g>
<g filter="url(#filter2_f_2208_36165)">
<path d="M9.24187 7.92906C9.62304 7.92906 9.98859 7.77765 10.2581 7.50812C10.5276 7.2386 10.6791 6.87304 10.6791 6.49188C10.6791 6.11071 10.5276 5.74515 10.2581 5.47563C9.98859 5.2061 9.62304 5.05469 9.24187 5.05469C8.86071 5.05469 8.49515 5.2061 8.22563 5.47563C7.9561 5.74515 7.80469 6.11071 7.80469 6.49188C7.80469 6.87304 7.9561 7.2386 8.22563 7.50812C8.49515 7.77765 8.86071 7.92906 9.24187 7.92906Z" fill="#CB758C"/>
</g>
<g filter="url(#filter3_f_2208_36165)">
<path d="M8.91961 18.1869C9.30077 18.1869 9.66633 18.0355 9.93585 17.7659C10.2054 17.4964 10.3568 17.1309 10.3568 16.7497C10.3568 16.3685 10.2054 16.003 9.93585 15.7334C9.66633 15.4639 9.30077 15.3125 8.91961 15.3125C8.53844 15.3125 8.17289 15.4639 7.90336 15.7334C7.63384 16.003 7.48242 16.3685 7.48242 16.7497C7.48242 17.1309 7.63384 17.4964 7.90336 17.7659C8.17289 18.0355 8.53844 18.1869 8.91961 18.1869Z" fill="#CB758C"/>
</g>
<g filter="url(#filter4_f_2208_36165)">
<path d="M5.54461 14.9056C5.92578 14.9056 6.29133 14.7542 6.56085 14.4847C6.83038 14.2152 6.9818 13.8496 6.9818 13.4684C6.9818 13.0873 6.83038 12.7217 6.56085 12.4522C6.29133 12.1827 5.92578 12.0312 5.54461 12.0313C5.16344 12.0312 4.79789 12.1827 4.52836 12.4522C4.25884 12.7217 4.10742 13.0873 4.10742 13.4684C4.10742 13.8496 4.25884 14.2152 4.52836 14.4847C4.79789 14.7542 5.16344 14.9056 5.54461 14.9056Z" fill="#EDB88B"/>
</g>
<g filter="url(#filter5_f_2208_36165)">
<path d="M5.59539 10.3314C5.97656 10.3314 6.34211 10.18 6.61164 9.91046C6.88116 9.64094 7.03258 9.27538 7.03258 8.89422C7.03258 8.51305 6.88116 8.1475 6.61164 7.87797C6.34211 7.60845 5.97656 7.45703 5.59539 7.45703C5.21423 7.45703 4.84867 7.60845 4.57915 7.87797C4.30962 8.1475 4.1582 8.51305 4.1582 8.89422C4.1582 9.27538 4.30962 9.64094 4.57915 9.91046C4.84867 10.18 5.21423 10.3314 5.59539 10.3314Z" fill="#EDB88B"/>
</g>
<g filter="url(#filter6_f_2208_36165)">
<path d="M9.64617 7.69469C10.0273 7.69469 10.3929 7.54327 10.6624 7.27374C10.9319 7.00422 11.0834 6.63867 11.0834 6.2575C11.0834 5.87633 10.9319 5.51078 10.6624 5.24125C10.3929 4.97173 10.0273 4.82031 9.64617 4.82031C9.26501 4.82031 8.89945 4.97173 8.62993 5.24125C8.3604 5.51078 8.20898 5.87633 8.20898 6.2575C8.20898 6.63867 8.3604 7.00422 8.62993 7.27374C8.89945 7.54327 9.26501 7.69469 9.64617 7.69469Z" fill="#EDB88B"/>
</g>
<g filter="url(#filter7_ii_2208_36165)">
<path d="M9.44336 7.90234C9.63726 7.90234 9.82927 7.86415 10.0084 7.78995C10.1876 7.71574 10.3503 7.60698 10.4874 7.46987C10.6246 7.33276 10.7333 7.16998 10.8075 6.99084C10.8817 6.81169 10.9199 6.61969 10.9199 6.42578C10.9199 6.23188 10.8817 6.03987 10.8075 5.86072C10.7333 5.68158 10.6246 5.51881 10.4874 5.38169C10.3503 5.24458 10.1876 5.13582 10.0084 5.06162C9.82927 4.98741 9.63726 4.94922 9.44336 4.94922C9.05175 4.94922 8.67618 5.10478 8.39927 5.38169C8.12236 5.6586 7.9668 6.03417 7.9668 6.42578C7.9668 6.81739 8.12236 7.19296 8.39927 7.46987C8.67618 7.74678 9.05175 7.90234 9.44336 7.90234Z" fill="url(#paint1_linear_2208_36165)"/>
</g>
<g filter="url(#filter8_ii_2208_36165)">
<path d="M5.50586 10.5273C5.89747 10.5273 6.27304 10.3718 6.54995 10.0949C6.82686 9.81796 6.98242 9.44239 6.98242 9.05078C6.98242 8.65917 6.82686 8.2836 6.54995 8.00669C6.27304 7.72978 5.89747 7.57422 5.50586 7.57422C5.11425 7.57422 4.73868 7.72978 4.46177 8.00669C4.18486 8.2836 4.0293 8.65917 4.0293 9.05078C4.0293 9.44239 4.18486 9.81796 4.46177 10.0949C4.73868 10.3718 5.11425 10.5273 5.50586 10.5273Z" fill="url(#paint2_linear_2208_36165)"/>
</g>
<g filter="url(#filter9_f_2208_36165)">
<path d="M5.32 15.2259C5.70117 15.2259 6.06672 15.0745 6.33625 14.805C6.60577 14.5355 6.75719 14.1699 6.75719 13.7888C6.75719 13.4076 6.60577 13.042 6.33625 12.7725C6.06672 12.503 5.70117 12.3516 5.32 12.3516C4.93883 12.3516 4.57328 12.503 4.30375 12.7725C4.03423 13.042 3.88281 13.4076 3.88281 13.7888C3.88281 14.1699 4.03423 14.5355 4.30375 14.805C4.57328 15.0745 4.93883 15.2259 5.32 15.2259Z" fill="#CB758C"/>
</g>
<g filter="url(#filter10_ii_2208_36165)">
<path d="M5.50586 15.1211C5.69976 15.1211 5.89177 15.0829 6.07092 15.0087C6.25006 14.9345 6.41284 14.8257 6.54995 14.6886C6.68706 14.5515 6.79582 14.3887 6.87003 14.2096C6.94423 14.0304 6.98242 13.8384 6.98242 13.6445C6.98242 13.4506 6.94423 13.2586 6.87003 13.0795C6.79582 12.9003 6.68706 12.7376 6.54995 12.6004C6.41284 12.4633 6.25006 12.3546 6.07092 12.2804C5.89177 12.2062 5.69976 12.168 5.50586 12.168C5.11425 12.168 4.73868 12.3235 4.46177 12.6004C4.18486 12.8774 4.0293 13.2529 4.0293 13.6445C4.0293 14.0361 4.18486 14.4117 4.46177 14.6886C4.73868 14.9655 5.11425 15.1211 5.50586 15.1211Z" fill="url(#paint3_linear_2208_36165)"/>
</g>
<g filter="url(#filter11_ii_2208_36165)">
<path d="M9.11523 18.0742C9.50684 18.0742 9.88241 17.9187 10.1593 17.6417C10.4362 17.3648 10.5918 16.9893 10.5918 16.5977C10.5918 16.206 10.4362 15.8305 10.1593 15.5536C9.88241 15.2767 9.50684 15.1211 9.11523 15.1211C8.72363 15.1211 8.34806 15.2767 8.07115 15.5536C7.79424 15.8305 7.63867 16.206 7.63867 16.5977C7.63867 16.9893 7.79424 17.3648 8.07115 17.6417C8.34806 17.9187 8.72363 18.0742 9.11523 18.0742Z" fill="url(#paint4_linear_2208_36165)"/>
</g>
<defs>
<filter id="filter0_iii_2208_36165" x="1.0707" y="3.15859" width="18.9336" height="17.1633" filterUnits="userSpaceOnUse" color-interpolation-filters="sRGB">
<feFlood flood-opacity="0" result="BackgroundImageFix"/>
<feBlend mode="normal" in="SourceGraphic" in2="BackgroundImageFix" result="shape"/>
<feColorMatrix in="SourceAlpha" type="matrix" values="0 0 0 0 0 0 0 0 0 0 0 0 0 0 0 0 0 0 127 0" result="hardAlpha"/>
<feOffset dx="0.225" dy="0.15"/>
<feGaussianBlur stdDeviation="0.1125"/>
<feComposite in2="hardAlpha" operator="arithmetic" k2="-1" k3="1"/>
<feColorMatrix type="matrix" values="0 0 0 0 1 0 0 0 0 0.647059 0 0 0 0 0.458824 0 0 0 1 0"/>
<feBlend mode="normal" in2="shape" result="effect1_innerShadow_2208_36165"/>
<feColorMatrix in="SourceAlpha" type="matrix" values="0 0 0 0 0 0 0 0 0 0 0 0 0 0 0 0 0 0 127 0" result="hardAlpha"/>
<feOffset dx="0.15" dy="-0.15"/>
<feGaussianBlur stdDeviation="0.1125"/>
<feComposite in2="hardAlpha" operator="arithmetic" k2="-1" k3="1"/>
<feColorMatrix type="matrix" values="0 0 0 0 0.937255 0 0 0 0 0.501961 0 0 0 0 0.588235 0 0 0 1 0"/>
<feBlend mode="normal" in2="effect1_innerShadow_2208_36165" result="effect2_innerShadow_2208_36165"/>
<feColorMatrix in="SourceAlpha" type="matrix" values="0 0 0 0 0 0 0 0 0 0 0 0 0 0 0 0 0 0 127 0" result="hardAlpha"/>
<feOffset dx="-0.15" dy="0.15"/>
<feGaussianBlur stdDeviation="0.1125"/>
<feComposite in2="hardAlpha" operator="arithmetic" k2="-1" k3="1"/>
<feColorMatrix type="matrix" values="0 0 0 0 1 0 0 0 0 0.835294 0 0 0 0 0.615686 0 0 0 1 0"/>
<feBlend mode="normal" in2="effect2_innerShadow_2208_36165" result="effect3_innerShadow_2208_36165"/>
</filter>
<filter id="filter1_f_2208_36165" x="3.63281" y="7.44531" width="3.375" height="3.375" filterUnits="userSpaceOnUse" color-interpolation-filters="sRGB">
<feFlood flood-opacity="0" result="BackgroundImageFix"/>
<feBlend mode="normal" in="SourceGraphic" in2="BackgroundImageFix" result="shape"/>
<feGaussianBlur stdDeviation="0.125" result="effect1_foregroundBlur_2208_36165"/>
</filter>
<filter id="filter2_f_2208_36165" x="7.55469" y="4.80469" width="3.375" height="3.375" filterUnits="userSpaceOnUse" color-interpolation-filters="sRGB">
<feFlood flood-opacity="0" result="BackgroundImageFix"/>
<feBlend mode="normal" in="SourceGraphic" in2="BackgroundImageFix" result="shape"/>
<feGaussianBlur stdDeviation="0.125" result="effect1_foregroundBlur_2208_36165"/>
</filter>
<filter id="filter3_f_2208_36165" x="7.23242" y="15.0625" width="3.375" height="3.375" filterUnits="userSpaceOnUse" color-interpolation-filters="sRGB">
<feFlood flood-opacity="0" result="BackgroundImageFix"/>
<feBlend mode="normal" in="SourceGraphic" in2="BackgroundImageFix" result="shape"/>
<feGaussianBlur stdDeviation="0.125" result="effect1_foregroundBlur_2208_36165"/>
</filter>
<filter id="filter4_f_2208_36165" x="3.85742" y="11.7812" width="3.375" height="3.375" filterUnits="userSpaceOnUse" color-interpolation-filters="sRGB">
<feFlood flood-opacity="0" result="BackgroundImageFix"/>
<feBlend mode="normal" in="SourceGraphic" in2="BackgroundImageFix" result="shape"/>
<feGaussianBlur stdDeviation="0.125" result="effect1_foregroundBlur_2208_36165"/>
</filter>
<filter id="filter5_f_2208_36165" x="3.9082" y="7.20703" width="3.375" height="3.375" filterUnits="userSpaceOnUse" color-interpolation-filters="sRGB">
<feFlood flood-opacity="0" result="BackgroundImageFix"/>
<feBlend mode="normal" in="SourceGraphic" in2="BackgroundImageFix" result="shape"/>
<feGaussianBlur stdDeviation="0.125" result="effect1_foregroundBlur_2208_36165"/>
</filter>
<filter id="filter6_f_2208_36165" x="7.95898" y="4.57031" width="3.375" height="3.375" filterUnits="userSpaceOnUse" color-interpolation-filters="sRGB">
<feFlood flood-opacity="0" result="BackgroundImageFix"/>
<feBlend mode="normal" in="SourceGraphic" in2="BackgroundImageFix" result="shape"/>
<feGaussianBlur stdDeviation="0.125" result="effect1_foregroundBlur_2208_36165"/>
</filter>
<filter id="filter7_ii_2208_36165" x="7.8168" y="4.94922" width="3.25313" height="3.10313" filterUnits="userSpaceOnUse" color-interpolation-filters="sRGB">
<feFlood flood-opacity="0" result="BackgroundImageFix"/>
<feBlend mode="normal" in="SourceGraphic" in2="BackgroundImageFix" result="shape"/>
<feColorMatrix in="SourceAlpha" type="matrix" values="0 0 0 0 0 0 0 0 0 0 0 0 0 0 0 0 0 0 127 0" result="hardAlpha"/>
<feOffset dx="-0.15" dy="0.15"/>
<feGaussianBlur stdDeviation="0.1125"/>
<feComposite in2="hardAlpha" operator="arithmetic" k2="-1" k3="1"/>
<feColorMatrix type="matrix" values="0 0 0 0 0.87451 0 0 0 0 0.490196 0 0 0 0 0.984314 0 0 0 1 0"/>
<feBlend mode="normal" in2="shape" result="effect1_innerShadow_2208_36165"/>
<feColorMatrix in="SourceAlpha" type="matrix" values="0 0 0 0 0 0 0 0 0 0 0 0 0 0 0 0 0 0 127 0" result="hardAlpha"/>
<feOffset dx="0.15"/>
<feGaussianBlur stdDeviation="0.25"/>
<feComposite in2="hardAlpha" operator="arithmetic" k2="-1" k3="1"/>
<feColorMatrix type="matrix" values="0 0 0 0 0.635294 0 0 0 0 0.258824 0 0 0 0 0.639216 0 0 0 1 0"/>
<feBlend mode="normal" in2="effect1_innerShadow_2208_36165" result="effect2_innerShadow_2208_36165"/>
</filter>
<filter id="filter8_ii_2208_36165" x="3.8793" y="7.57422" width="3.25313" height="3.10313" filterUnits="userSpaceOnUse" color-interpolation-filters="sRGB">
<feFlood flood-opacity="0" result="BackgroundImageFix"/>
<feBlend mode="normal" in="SourceGraphic" in2="BackgroundImageFix" result="shape"/>
<feColorMatrix in="SourceAlpha" type="matrix" values="0 0 0 0 0 0 0 0 0 0 0 0 0 0 0 0 0 0 127 0" result="hardAlpha"/>
<feOffset dx="-0.15" dy="0.15"/>
<feGaussianBlur stdDeviation="0.1125"/>
<feComposite in2="hardAlpha" operator="arithmetic" k2="-1" k3="1"/>
<feColorMatrix type="matrix" values="0 0 0 0 1 0 0 0 0 0.34902 0 0 0 0 0.619608 0 0 0 1 0"/>
<feBlend mode="normal" in2="shape" result="effect1_innerShadow_2208_36165"/>
<feColorMatrix in="SourceAlpha" type="matrix" values="0 0 0 0 0 0 0 0 0 0 0 0 0 0 0 0 0 0 127 0" result="hardAlpha"/>
<feOffset dx="0.15"/>
<feGaussianBlur stdDeviation="0.25"/>
<feComposite in2="hardAlpha" operator="arithmetic" k2="-1" k3="1"/>
<feColorMatrix type="matrix" values="0 0 0 0 0.807843 0 0 0 0 0.172549 0 0 0 0 0.415686 0 0 0 1 0"/>
<feBlend mode="normal" in2="effect1_innerShadow_2208_36165" result="effect2_innerShadow_2208_36165"/>
</filter>
<filter id="filter9_f_2208_36165" x="3.63281" y="12.1016" width="3.375" height="3.375" filterUnits="userSpaceOnUse" color-interpolation-filters="sRGB">
<feFlood flood-opacity="0" result="BackgroundImageFix"/>
<feBlend mode="normal" in="SourceGraphic" in2="BackgroundImageFix" result="shape"/>
<feGaussianBlur stdDeviation="0.125" result="effect1_foregroundBlur_2208_36165"/>
</filter>
<filter id="filter10_ii_2208_36165" x="3.8793" y="12.168" width="3.25313" height="3.10313" filterUnits="userSpaceOnUse" color-interpolation-filters="sRGB">
<feFlood flood-opacity="0" result="BackgroundImageFix"/>
<feBlend mode="normal" in="SourceGraphic" in2="BackgroundImageFix" result="shape"/>
<feColorMatrix in="SourceAlpha" type="matrix" values="0 0 0 0 0 0 0 0 0 0 0 0 0 0 0 0 0 0 127 0" result="hardAlpha"/>
<feOffset dx="-0.15" dy="0.15"/>
<feGaussianBlur stdDeviation="0.1125"/>
<feComposite in2="hardAlpha" operator="arithmetic" k2="-1" k3="1"/>
<feColorMatrix type="matrix" values="0 0 0 0 0.364706 0 0 0 0 0.894118 0 0 0 0 0.737255 0 0 0 1 0"/>
<feBlend mode="normal" in2="shape" result="effect1_innerShadow_2208_36165"/>
<feColorMatrix in="SourceAlpha" type="matrix" values="0 0 0 0 0 0 0 0 0 0 0 0 0 0 0 0 0 0 127 0" result="hardAlpha"/>
<feOffset dx="0.15"/>
<feGaussianBlur stdDeviation="0.25"/>
<feComposite in2="hardAlpha" operator="arithmetic" k2="-1" k3="1"/>
<feColorMatrix type="matrix" values="0 0 0 0 0.247059 0 0 0 0 0.533333 0 0 0 0 0.694118 0 0 0 1 0"/>
<feBlend mode="normal" in2="effect1_innerShadow_2208_36165" result="effect2_innerShadow_2208_36165"/>
</filter>
<filter id="filter11_ii_2208_36165" x="7.48867" y="15.1211" width="3.25313" height="3.10313" filterUnits="userSpaceOnUse" color-interpolation-filters="sRGB">
<feFlood flood-opacity="0" result="BackgroundImageFix"/>
<feBlend mode="normal" in="SourceGraphic" in2="BackgroundImageFix" result="shape"/>
<feColorMatrix in="SourceAlpha" type="matrix" values="0 0 0 0 0 0 0 0 0 0 0 0 0 0 0 0 0 0 127 0" result="hardAlpha"/>
<feOffset dx="-0.15" dy="0.15"/>
<feGaussianBlur stdDeviation="0.1125"/>
<feComposite in2="hardAlpha" operator="arithmetic" k2="-1" k3="1"/>
<feColorMatrix type="matrix" values="0 0 0 0 0.364706 0 0 0 0 0.752941 0 0 0 0 0.945098 0 0 0 1 0"/>
<feBlend mode="normal" in2="shape" result="effect1_innerShadow_2208_36165"/>
<feColorMatrix in="SourceAlpha" type="matrix" values="0 0 0 0 0 0 0 0 0 0 0 0 0 0 0 0 0 0 127 0" result="hardAlpha"/>
<feOffset dx="0.15"/>
<feGaussianBlur stdDeviation="0.25"/>
<feComposite in2="hardAlpha" operator="arithmetic" k2="-1" k3="1"/>
<feColorMatrix type="matrix" values="0 0 0 0 0.266667 0 0 0 0 0.4 0 0 0 0 0.917647 0 0 0 1 0"/>
<feBlend mode="normal" in2="effect1_innerShadow_2208_36165" result="effect2_innerShadow_2208_36165"/>
</filter>
<linearGradient id="paint0_linear_2208_36165" x1="15.8018" y1="5.21343" x2="9.00633" y2="20.0007" gradientUnits="userSpaceOnUse">
<stop stop-color="#FFB9A1"/>
<stop offset="1" stop-color="#FFB4AD"/>
</linearGradient>
<linearGradient id="paint1_linear_2208_36165" x1="8.57842" y1="4.94922" x2="9.93489" y2="8.23834" gradientUnits="userSpaceOnUse">
<stop stop-color="#CC67F1"/>
<stop offset="1" stop-color="#C950FC"/>
</linearGradient>
<linearGradient id="paint2_linear_2208_36165" x1="4.64092" y1="7.57422" x2="5.99739" y2="10.8633" gradientUnits="userSpaceOnUse">
<stop stop-color="#F9399F"/>
<stop offset="1" stop-color="#FD328C"/>
</linearGradient>
<linearGradient id="paint3_linear_2208_36165" x1="4.64092" y1="12.168" x2="5.99739" y2="15.4571" gradientUnits="userSpaceOnUse">
<stop stop-color="#47CFA8"/>
<stop offset="1" stop-color="#48ABEB"/>
</linearGradient>
<linearGradient id="paint4_linear_2208_36165" x1="8.2503" y1="15.1211" x2="9.60677" y2="18.4102" gradientUnits="userSpaceOnUse">
<stop stop-color="#49B1F1"/>
<stop offset="1" stop-color="#4982FE"/>
</linearGradient>
</defs>
</svg>
