<svg width="104" height="14" viewBox="0 0 104 14" fill="none" xmlns="http://www.w3.org/2000/svg">
<path d="M0.395508 13.5L4.62305 0.773438H9.16699L13.3945 13.5H9.78223L6.95215 4.19238H6.84668L4.00781 13.5H0.395508ZM10.3623 8.47266V10.9951H3.375V8.47266H10.3623ZM14.6953 3.95508H17.9121V5.74805H18.0176C18.1816 5.09766 18.4541 4.61719 18.835 4.30664C19.2158 3.99023 19.6699 3.83203 20.1973 3.83203C20.4668 3.83203 20.7539 3.87012 21.0586 3.94629V6.80273C20.9121 6.74414 20.7158 6.70312 20.4697 6.67969C20.2295 6.65039 20.0098 6.63574 19.8105 6.63574C19.4648 6.63574 19.1572 6.71191 18.8877 6.86426C18.6182 7.01074 18.4043 7.22461 18.2461 7.50586C18.0938 7.78125 18.0176 8.10059 18.0176 8.46387V13.5H14.6953V3.95508ZM28.2129 6.36328H22.0166V3.95508H28.2129V6.36328ZM26.5605 1.66992V10.4414C26.5605 10.5879 26.584 10.708 26.6309 10.8018C26.6836 10.8955 26.7598 10.9658 26.8594 11.0127C26.959 11.0537 27.0879 11.0771 27.2461 11.083C27.4629 11.0947 27.8291 11.0801 28.3447 11.0391V13.5176C27.8936 13.5996 27.3691 13.6406 26.7715 13.6406C25.9922 13.6406 25.3389 13.5381 24.8115 13.333C24.29 13.1279 23.8945 12.8145 23.625 12.3926C23.3555 11.9648 23.2266 11.4258 23.2383 10.7754V1.66992H26.5605ZM38.0039 5.49316C37.9746 5.09473 37.8662 4.74609 37.6787 4.44727C37.4971 4.14844 37.2393 3.91992 36.9053 3.76172C36.5713 3.59766 36.1846 3.51562 35.7451 3.51562C35.1592 3.51562 34.6611 3.65918 34.251 3.94629C33.8408 4.2334 33.5244 4.64941 33.3018 5.19434C33.085 5.7334 32.9766 6.38086 32.9766 7.13672C32.9766 7.92773 33.085 8.58984 33.3018 9.12305C33.5244 9.65625 33.8408 10.0635 34.251 10.3447C34.6611 10.6201 35.1475 10.7578 35.71 10.7578C36.1436 10.7578 36.5186 10.6846 36.835 10.5381C37.1572 10.3857 37.415 10.1748 37.6084 9.90527C37.8076 9.62988 37.9395 9.30469 38.0039 8.92969L41.4053 8.96484C41.3408 9.73242 41.0771 10.4766 40.6143 11.1973C40.1514 11.918 39.4951 12.5127 38.6455 12.9814C37.8018 13.4443 36.8027 13.6758 35.6484 13.6758C34.4766 13.6758 33.4277 13.4209 32.502 12.9111C31.5762 12.4014 30.8496 11.6543 30.3223 10.6699C29.8008 9.67969 29.54 8.50195 29.54 7.13672C29.54 5.75977 29.8066 4.5791 30.3398 3.59473C30.8789 2.61035 31.6084 1.86621 32.5283 1.3623C33.4482 0.852539 34.4883 0.597656 35.6484 0.597656C36.709 0.597656 37.6553 0.791016 38.4873 1.17773C39.3193 1.55859 39.9902 2.11816 40.5 2.85645C41.0098 3.59473 41.3115 4.47363 41.4053 5.49316H38.0039ZM47.6016 13.6758C46.5879 13.6758 45.7119 13.4707 44.9736 13.0605C44.2354 12.6504 43.6699 12.0732 43.2773 11.3291C42.8848 10.585 42.6885 9.72656 42.6885 8.75391C42.6885 7.76953 42.8848 6.9082 43.2773 6.16992C43.6699 5.43164 44.2354 4.85742 44.9736 4.44727C45.7119 4.03711 46.5879 3.83203 47.6016 3.83203C48.6094 3.83203 49.4854 4.03711 50.2295 4.44727C50.9736 4.85742 51.542 5.43164 51.9346 6.16992C52.3271 6.9082 52.5234 7.76953 52.5234 8.75391C52.5234 9.72656 52.3271 10.585 51.9346 11.3291C51.542 12.0732 50.9736 12.6504 50.2295 13.0605C49.4854 13.4707 48.6094 13.6758 47.6016 13.6758ZM47.6367 11.2148C47.9473 11.2148 48.2139 11.1152 48.4365 10.916C48.6592 10.7109 48.8291 10.4209 48.9463 10.0459C49.0635 9.66504 49.1221 9.22266 49.1221 8.71875C49.1221 8.2207 49.0635 7.78418 48.9463 7.40918C48.8291 7.03418 48.6592 6.74707 48.4365 6.54785C48.2139 6.34863 47.9473 6.24902 47.6367 6.24902C47.3086 6.24902 47.0273 6.34863 46.793 6.54785C46.5586 6.74707 46.3799 7.03125 46.2568 7.40039C46.1396 7.76953 46.0811 8.20898 46.0811 8.71875C46.0811 9.23438 46.1396 9.67969 46.2568 10.0547C46.3799 10.4238 46.5586 10.7109 46.793 10.916C47.0273 11.1152 47.3086 11.2148 47.6367 11.2148ZM57.2695 13.5H53.9473V3.95508H57.1025V5.74805H57.1904C57.4014 5.15625 57.7646 4.69043 58.2803 4.35059C58.8018 4.00488 59.4141 3.83203 60.1172 3.83203C60.7852 3.83203 61.3682 3.98438 61.8662 4.28906C62.3701 4.58789 62.7598 5.00684 63.0352 5.5459C63.3105 6.08496 63.4482 6.70312 63.4482 7.40039V13.5H60.126V8.08594C60.126 7.76367 60.0703 7.48828 59.959 7.25977C59.8535 7.02539 59.6953 6.84668 59.4844 6.72363C59.2734 6.59473 59.0156 6.53027 58.7109 6.53027C58.4238 6.53027 58.1689 6.59473 57.9463 6.72363C57.7295 6.84668 57.5625 7.02539 57.4453 7.25977C57.3281 7.49414 57.2695 7.77539 57.2695 8.10352V13.5ZM68.5195 13.5H65.1973V3.95508H68.3525V5.74805H68.4404C68.6514 5.15625 69.0146 4.69043 69.5303 4.35059C70.0518 4.00488 70.6641 3.83203 71.3672 3.83203C72.0352 3.83203 72.6182 3.98438 73.1162 4.28906C73.6201 4.58789 74.0098 5.00684 74.2852 5.5459C74.5605 6.08496 74.6982 6.70312 74.6982 7.40039V13.5H71.376V8.08594C71.376 7.76367 71.3203 7.48828 71.209 7.25977C71.1035 7.02539 70.9453 6.84668 70.7344 6.72363C70.5234 6.59473 70.2656 6.53027 69.9609 6.53027C69.6738 6.53027 69.4189 6.59473 69.1963 6.72363C68.9795 6.84668 68.8125 7.02539 68.6953 7.25977C68.5781 7.49414 68.5195 7.77539 68.5195 8.10352V13.5ZM80.9912 13.6758C79.9893 13.6758 79.1191 13.4795 78.3809 13.0869C77.6484 12.6943 77.083 12.1289 76.6846 11.3906C76.2861 10.6523 76.0869 9.77344 76.0869 8.75391C76.0869 7.76953 76.2861 6.90527 76.6846 6.16113C77.083 5.41699 77.6455 4.84277 78.3721 4.43848C79.0986 4.03418 79.9453 3.83203 80.9121 3.83203C81.8613 3.83203 82.6904 4.02832 83.3994 4.4209C84.1084 4.80762 84.6562 5.37012 85.043 6.1084C85.4297 6.84082 85.623 7.70801 85.623 8.70996V9.50977H77.1592V7.64648H82.5557C82.5557 7.35938 82.4854 7.10449 82.3447 6.88184C82.2041 6.65918 82.0137 6.48633 81.7734 6.36328C81.5391 6.24023 81.2754 6.17871 80.9824 6.17871C80.6836 6.17871 80.4111 6.24316 80.165 6.37207C79.9189 6.49512 79.7256 6.6709 79.585 6.89941C79.4443 7.12207 79.3682 7.37695 79.3564 7.66406V9.63281C79.3564 9.96094 79.4238 10.2568 79.5586 10.5205C79.6992 10.7783 79.8984 10.9775 80.1562 11.1182C80.4141 11.2588 80.7129 11.3291 81.0527 11.3291C81.293 11.3291 81.5156 11.2939 81.7207 11.2236C81.9258 11.1475 82.0986 11.0479 82.2393 10.9248C82.3857 10.8018 82.4912 10.6494 82.5557 10.4678H85.6143C85.5088 11.1182 85.2539 11.6865 84.8496 12.1729C84.4512 12.6533 83.9209 13.0254 83.2588 13.2891C82.5967 13.5469 81.8408 13.6758 80.9912 13.6758ZM91.5996 13.6758C90.5859 13.6758 89.71 13.4707 88.9717 13.0605C88.2334 12.6504 87.668 12.0732 87.2754 11.3291C86.8828 10.585 86.6865 9.72656 86.6865 8.75391C86.6865 7.76953 86.8828 6.9082 87.2754 6.16992C87.668 5.43164 88.2334 4.85742 88.9717 4.44727C89.71 4.03711 90.5859 3.83203 91.5996 3.83203C92.5078 3.83203 93.3047 3.99609 93.9902 4.32422C94.6816 4.65234 95.2148 5.12402 95.5898 5.73926C95.9648 6.34863 96.1523 7.05762 96.1523 7.86621H93.0674C93.0322 7.53809 92.9531 7.25684 92.8301 7.02246C92.707 6.78809 92.5459 6.6123 92.3467 6.49512C92.1475 6.37207 91.9131 6.31055 91.6436 6.31055C91.3271 6.31055 91.0518 6.40137 90.8174 6.58301C90.583 6.76465 90.4014 7.03418 90.2725 7.3916C90.1436 7.74902 90.0791 8.19141 90.0791 8.71875C90.0791 9.24609 90.1436 9.68848 90.2725 10.0459C90.4014 10.4033 90.583 10.6729 90.8174 10.8545C91.0518 11.0361 91.3271 11.127 91.6436 11.127C91.9131 11.127 92.1504 11.0684 92.3555 10.9512C92.5605 10.834 92.7217 10.6611 92.8389 10.4326C92.9619 10.2041 93.0381 9.92285 93.0674 9.58887H96.1523C96.1406 10.4092 95.9473 11.1299 95.5723 11.751C95.2031 12.3662 94.6787 12.8408 93.999 13.1748C93.3193 13.5088 92.5195 13.6758 91.5996 13.6758ZM103.201 6.36328H97.0049V3.95508H103.201V6.36328ZM101.549 1.66992V10.4414C101.549 10.5879 101.572 10.708 101.619 10.8018C101.672 10.8955 101.748 10.9658 101.848 11.0127C101.947 11.0537 102.076 11.0771 102.234 11.083C102.451 11.0947 102.817 11.0801 103.333 11.0391V13.5176C102.882 13.5996 102.357 13.6406 101.76 13.6406C100.98 13.6406 100.327 13.5381 99.7998 13.333C99.2783 13.1279 98.8828 12.8145 98.6133 12.3926C98.3438 11.9648 98.2148 11.4258 98.2266 10.7754V1.66992H101.549Z" fill="black"/>
</svg>
