<svg width="16" height="16" viewBox="0 0 16 16" fill="none" xmlns="http://www.w3.org/2000/svg">
<path d="M2.40039 1.38672C2.68439 1.38672 2.92481 1.50977 3.1084 1.69336L8.00098 6.58594L12.8936 1.69336C13.0782 1.5088 13.3117 1.40993 13.5674 1.39746H13.6748C13.9227 1.41262 14.1388 1.52361 14.3086 1.69336C14.492 1.87685 14.6142 2.11666 14.6143 2.40039C14.6143 2.68434 14.4921 2.92482 14.3086 3.1084L9.41602 8.00098L14.3086 12.8936C14.493 13.0781 14.592 13.3118 14.6045 13.5674C14.6188 13.8604 14.5024 14.1148 14.3086 14.3086C14.125 14.4922 13.8846 14.6143 13.6006 14.6143C13.3168 14.6142 13.0771 14.492 12.8936 14.3086L8.00098 9.41602L3.1084 14.3086C2.92437 14.4926 2.69105 14.5919 2.43555 14.6045C2.14264 14.6189 1.88779 14.5029 1.69336 14.3086C1.50977 14.125 1.38672 13.8846 1.38672 13.6006C1.38676 13.3167 1.50985 13.0771 1.69336 12.8936L6.58594 8.00098L1.69336 3.1084C1.50932 2.92436 1.41007 2.69109 1.39746 2.43555C1.3831 2.14251 1.4989 1.88782 1.69336 1.69336C1.87688 1.50984 2.11653 1.38681 2.40039 1.38672Z" fill="white" stroke="white"/>
</svg>
