<svg width="34" height="35" viewBox="0 0 34 35" fill="none" xmlns="http://www.w3.org/2000/svg">
<g clip-path="url(#clip0_2075_5830)">
<rect y="0.5" width="34" height="34" rx="17" fill="#EDEDED"/>
<path d="M21.7709 8.77048C20.5594 7.46249 18.8673 6.74219 16.9996 6.74219C15.122 6.74219 13.4243 7.45813 12.2184 8.75803C10.9994 10.0723 10.4055 11.8584 10.5449 13.7871C10.8214 17.5921 13.7169 20.6875 16.9996 20.6875C20.2824 20.6875 23.1729 17.5928 23.4537 13.7883C23.595 11.877 22.9974 10.0947 21.7709 8.77048ZM27.9567 34.6328H6.04259C5.75576 34.6365 5.4717 34.5763 5.21108 34.4564C4.95046 34.3366 4.71984 34.1601 4.536 33.9399C4.13134 33.4562 3.96823 32.7956 4.089 32.1276C4.61444 29.2128 6.25426 26.7643 8.83166 25.0454C11.1214 23.5195 14.0219 22.6797 16.9996 22.6797C19.9773 22.6797 22.8778 23.5201 25.1676 25.0454C27.745 26.7637 29.3848 29.2122 29.9102 32.127C30.031 32.795 29.8679 33.4556 29.4632 33.9393C29.2795 34.1596 29.0489 34.3362 28.7882 34.4561C28.5276 34.5761 28.2435 34.6365 27.9567 34.6328Z" fill="black" fill-opacity="0.3"/>
</g>
<defs>
<clipPath id="clip0_2075_5830">
<rect y="0.5" width="34" height="34" rx="17" fill="white"/>
</clipPath>
</defs>
</svg>
