<svg width="18" height="18" viewBox="0 0 18 18" fill="none" xmlns="http://www.w3.org/2000/svg">
<path d="M6.75 0C5.3175 0 4.15725 1.04025 3.867 2.391C2.118 2.703 0.75 4.1625 0.75 6C0.75 6.1845 0.77025 6.34875 0.79725 6.516C0.3135 7.227 0 8.06475 0 9C0 10.3478 0.67125 11.4818 1.617 12.3045C1.5495 12.5715 1.5 12.8378 1.5 13.125C1.5 14.9798 3.02025 16.5 4.875 16.5H4.92225C5.35875 17.3467 6.11475 18 7.125 18C7.47489 17.9988 7.82101 17.9276 8.14301 17.7907C8.465 17.6538 8.75638 17.4539 9 17.2028C9.24362 17.4539 9.535 17.6538 9.857 17.7907C10.179 17.9276 10.5251 17.9988 10.875 18C11.886 18 12.6412 17.3467 13.0785 16.5H13.125C14.886 16.5 16.3297 15.129 16.4767 13.4062H16.5C16.5 13.359 16.4797 13.3125 16.4767 13.2653C16.4797 13.2188 16.5 13.1715 16.5 13.125C16.5 12.8468 16.4003 12.609 16.3358 12.3517C17.3085 11.5252 18 10.3717 18 9C18 8.0655 17.6865 7.22775 17.2028 6.51525C17.2298 6.34875 17.25 6.18525 17.25 6C17.25 4.1625 15.882 2.70375 14.133 2.39025C13.8427 1.041 12.6825 0 11.25 0C10.35 0 9.5505 0.41925 9 1.0545C8.4495 0.42 7.65 0 6.75 0ZM6.75 1.5C7.58775 1.5 8.25 2.16225 8.25 3V4.5C8.25 5.751 7.251 6.75 6 6.75V8.25C6.84975 8.25 7.62 7.9575 8.25 7.47675V15.375C8.25 16.005 7.755 16.5 7.125 16.5C6.8626 16.5037 6.60749 16.4136 6.40554 16.246C6.20358 16.0785 6.06803 15.8443 6.02325 15.5858L5.883 14.8597L5.15625 14.9767C4.88921 15.0189 4.6162 15.0026 4.35611 14.9288C4.09603 14.855 3.8551 14.7255 3.65 14.5494C3.4449 14.3733 3.28055 14.1547 3.16831 13.9087C3.05608 13.6628 2.99865 13.3953 3 13.125C3 12.8933 3.0375 12.6765 3.117 12.4688C3.123 12.4515 3.135 12.4388 3.14025 12.4215C3.25544 12.1357 3.44012 11.8831 3.67755 11.6867C3.91498 11.4902 4.19766 11.3561 4.5 11.2965L4.1955 9.8205C3.43 9.97158 2.74162 10.3861 2.25 10.992C1.76248 10.4435 1.49531 9.73386 1.5 9C1.49872 8.32555 1.73055 7.67138 2.15625 7.14825L2.391 6.867L2.3205 6.492C2.2789 6.33111 2.25526 6.1661 2.25 6C2.25 4.749 3.249 3.75 4.5 3.75H5.25V3C5.25 2.16225 5.91225 1.5 6.75 1.5ZM11.25 1.5C12.0877 1.5 12.75 2.16225 12.75 3V3.75H13.5C14.751 3.75 15.75 4.749 15.75 6C15.75 6.16125 15.72 6.3165 15.6795 6.492L15.6097 6.867L15.8438 7.14825C16.2694 7.67138 16.5013 8.32555 16.5 9C16.5 9.9 16.116 10.7025 15.492 11.25C14.9798 10.7962 14.3265 10.5 13.5938 10.5C12.885 10.5 12.246 10.752 11.742 11.1795L12.7035 12.3285C12.9507 12.1149 13.267 11.9982 13.5938 12C14.3175 12 14.8942 12.5423 14.9767 13.242C14.9152 14.2298 14.127 15 13.125 15C13.0575 15 12.975 14.997 12.8438 14.9767L12.117 14.859L11.9767 15.5865C11.9318 15.8449 11.7962 16.0789 11.5942 16.2463C11.3923 16.4138 11.1373 16.5037 10.875 16.5C10.245 16.5 9.75 16.005 9.75 15.375V7.47675C10.3935 7.97686 11.185 8.24887 12 8.25V6.75C10.749 6.75 9.75 5.751 9.75 4.5V3C9.75 2.16225 10.4123 1.5 11.25 1.5Z" fill="black"/>
</svg>
