<svg width="22" height="22" viewBox="0 0 22 22" fill="none" xmlns="http://www.w3.org/2000/svg">
<path d="M10.9995 16.6998V4.35006M10.9995 4.35006C10.9995 3.91291 11.1001 3.48161 11.2934 3.08953C11.4868 2.69744 11.7678 2.3551 12.1147 2.08897C12.4615 1.82283 12.865 1.64005 13.2938 1.55477C13.7226 1.46948 14.1653 1.48397 14.5876 1.59711C15.01 1.71026 15.4006 1.91903 15.7293 2.20727C16.058 2.49551 16.316 2.8555 16.4833 3.25939C16.6506 3.66327 16.7228 4.10022 16.6941 4.53644C16.6655 4.97266 16.5369 5.39645 16.3183 5.77503M10.9995 4.35006C10.9996 3.91291 10.899 3.48161 10.7056 3.08953C10.5123 2.69744 10.2313 2.3551 9.88442 2.08897C9.53755 1.82283 9.1341 1.64005 8.70528 1.55477C8.27646 1.46948 7.83377 1.48397 7.41145 1.59711C6.98913 1.71026 6.5985 1.91903 6.26978 2.20727C5.94107 2.49551 5.68308 2.8555 5.51577 3.25939C5.34846 3.66327 5.27633 4.10022 5.30494 4.53644C5.33355 4.97266 5.46215 5.39645 5.68078 5.77503M13.8499 11.9499C13.0279 11.7096 12.3058 11.2095 11.7919 10.5245C11.2781 9.8394 11.0001 9.0063 10.9995 8.14998C10.999 9.0063 10.721 9.8394 10.2071 10.5245C9.69327 11.2095 8.97123 11.7096 8.14918 11.9499" stroke="black" stroke-width="2" stroke-linecap="round" stroke-linejoin="round"/>
<path d="M16.6973 4.46875C17.2557 4.61232 17.774 4.88106 18.2132 5.25463C18.6523 5.6282 19.0007 6.09679 19.2319 6.62493C19.4631 7.15306 19.5711 7.72688 19.5477 8.30293C19.5243 8.87898 19.3702 9.44215 19.0969 9.94979" stroke="black" stroke-width="2" stroke-linecap="round" stroke-linejoin="round"/>
<path d="M16.7012 16.7006C17.5378 16.7006 18.351 16.4245 19.0147 15.9153C19.6785 15.406 20.1556 14.692 20.3721 13.884C20.5886 13.0759 20.5325 12.219 20.2124 11.4462C19.8922 10.6733 19.326 10.0277 18.6015 9.60938" stroke="black" stroke-width="2" stroke-linecap="round" stroke-linejoin="round"/>
<path d="M18.5695 16.2109C18.6361 16.7261 18.5964 17.2494 18.4528 17.7486C18.3092 18.2478 18.0647 18.7123 17.7346 19.1133C17.4044 19.5144 16.9955 19.8435 16.5331 20.0803C16.0708 20.3171 15.5648 20.4567 15.0464 20.4903C14.528 20.524 14.0082 20.451 13.5191 20.2759C13.03 20.1008 12.582 19.8273 12.2028 19.4723C11.8236 19.1173 11.5211 18.6883 11.3142 18.2118C11.1073 17.7354 11.0002 17.2216 10.9997 16.7021C10.9991 17.2216 10.8921 17.7354 10.6851 18.2118C10.4782 18.6883 10.1758 19.1173 9.79654 19.4723C9.41731 19.8273 8.96931 20.1008 8.48022 20.2759C7.99114 20.451 7.47134 20.524 6.95294 20.4903C6.43453 20.4567 5.92853 20.3171 5.46618 20.0803C5.00382 19.8435 4.59494 19.5144 4.26477 19.1133C3.9346 18.7123 3.69017 18.2478 3.54655 17.7486C3.40294 17.2494 3.3632 16.7261 3.42979 16.2109" stroke="black" stroke-width="2" stroke-linecap="round" stroke-linejoin="round"/>
<path d="M5.29849 16.7006C4.46188 16.7006 3.64865 16.4245 2.98493 15.9153C2.32121 15.406 1.84409 14.692 1.62755 13.884C1.41102 13.0759 1.46718 12.219 1.78731 11.4462C2.10745 10.6733 2.67368 10.0277 3.39819 9.60938" stroke="black" stroke-width="2" stroke-linecap="round" stroke-linejoin="round"/>
<path d="M5.29892 4.46875C4.74053 4.61232 4.22213 4.88106 3.78299 5.25463C3.34385 5.6282 2.99548 6.09679 2.76426 6.62493C2.53305 7.15306 2.42505 7.72688 2.44844 8.30293C2.47184 8.87898 2.62602 9.44215 2.89931 9.94979" stroke="black" stroke-width="2" stroke-linecap="round" stroke-linejoin="round"/>
</svg>
