<svg width="19" height="17" viewBox="0 0 19 17" fill="none" xmlns="http://www.w3.org/2000/svg">
<path d="M11.4408 0.5C12.1414 0.5 12.8133 0.780952 13.3086 1.28105C13.804 1.78115 14.0823 2.45942 14.0823 3.16667H16.7237C17.1908 3.16667 17.6387 3.35397 17.9689 3.68737C18.2992 4.02076 18.4847 4.47295 18.4847 4.94444V14.7222C18.4847 15.1937 18.2992 15.6459 17.9689 15.9793C17.6387 16.3127 17.1908 16.5 16.7237 16.5H2.63597C2.16893 16.5 1.72102 16.3127 1.39078 15.9793C1.06053 15.6459 0.875 15.1937 0.875 14.7222V4.94444C0.875 4.47295 1.06053 4.02076 1.39078 3.68737C1.72102 3.35397 2.16893 3.16667 2.63597 3.16667H5.27743C5.27743 2.45942 5.55573 1.78115 6.05109 1.28105C6.54646 0.780952 7.21833 0.5 7.91889 0.5H11.4408ZM8.79937 8.5H2.63597V14.7222H16.7237V8.5H10.5603V9.38889C10.5601 9.61545 10.4742 9.83336 10.3201 9.99811C10.166 10.1628 9.95549 10.262 9.73146 10.2753C9.50743 10.2885 9.28683 10.215 9.11473 10.0695C8.94264 9.92413 8.83204 9.71786 8.80554 9.49289L8.79937 9.38889V8.5ZM16.7237 4.94444H2.63597V6.72222H16.7237V4.94444ZM11.4408 2.27778H7.91889C7.70323 2.27781 7.49508 2.35774 7.33392 2.50241C7.17276 2.64709 7.0698 2.84644 7.04456 3.06267L7.0384 3.16667H12.3213C12.3213 2.94895 12.2421 2.73881 12.0988 2.57611C11.9555 2.41342 11.758 2.30947 11.5438 2.284L11.4408 2.27778Z" fill="#5F5E5B"/>
</svg>
