<svg width="20" height="20" viewBox="0 0 20 20" fill="none" xmlns="http://www.w3.org/2000/svg">
<path d="M9.99934 16.5C10.001 17.0243 9.83725 17.5357 9.53151 17.9616C9.22576 18.3875 8.79354 18.7061 8.29629 18.8722C7.79904 19.0383 7.26207 19.0435 6.76174 18.8869C6.2614 18.7303 5.82317 18.42 5.50934 18H5.49934C5.11418 18.0046 4.73329 17.9189 4.38715 17.7499C4.04102 17.5809 3.73925 17.3332 3.50599 17.0267C3.27274 16.7202 3.11447 16.3633 3.04386 15.9846C2.97325 15.6059 2.99225 15.216 3.09934 14.846C2.56852 14.682 2.0941 14.3729 1.72965 13.9536C1.36521 13.5343 1.12524 13.0214 1.03684 12.4729C0.948437 11.9244 1.01513 11.3621 1.22938 10.8495C1.44363 10.3369 1.79691 9.89444 2.24934 9.572C1.98126 9.02188 1.92694 8.39182 2.09691 7.80393C2.26689 7.21604 2.64905 6.71218 3.16934 6.39C3.03535 6.04845 2.97891 5.68139 3.0041 5.31536C3.02929 4.94933 3.13547 4.59347 3.31498 4.27348C3.49449 3.9535 3.74285 3.67739 4.0421 3.46511C4.34134 3.25283 4.68401 3.10968 5.04534 3.046C5.11314 2.68026 5.2617 2.33426 5.4802 2.03322C5.69869 1.73218 5.9816 1.4837 6.30831 1.30587C6.63503 1.12805 6.9973 1.02537 7.36873 1.00533C7.74016 0.98528 8.11139 1.04837 8.45534 1.19C8.91234 1.37913 9.30296 1.69956 9.5778 2.11075C9.85264 2.52194 9.99934 3.00541 9.99934 3.5M9.99934 16.5V3.5M9.99934 16.5C9.99772 17.0243 10.1614 17.5357 10.4672 17.9616C10.7729 18.3875 11.2051 18.7061 11.7024 18.8722C12.1996 19.0383 12.7366 19.0435 13.2369 18.8869C13.7373 18.7303 14.1755 18.42 14.4893 18H14.4993C14.8848 18.005 15.266 17.9198 15.6125 17.7509C15.959 17.5821 16.2612 17.3345 16.4948 17.0279C16.7284 16.7213 16.8869 16.3643 16.9577 15.9854C17.0285 15.6065 17.0095 15.2163 16.9023 14.846C17.433 14.6817 17.9071 14.3723 18.2712 13.9528C18.6353 13.5333 18.8749 13.0204 18.963 12.4719C19.0511 11.9235 18.9841 11.3613 18.7697 10.8489C18.5552 10.3365 18.2018 9.89422 17.7493 9.572C18.0173 9.02176 18.0715 8.39162 17.9013 7.80372C17.7312 7.21582 17.3488 6.71203 16.8283 6.39C16.9623 6.04852 17.0188 5.68153 16.9937 5.31556C16.9685 4.9496 16.8624 4.59378 16.683 4.27381C16.5036 3.95384 16.2554 3.67772 15.9563 3.46539C15.6571 3.25305 15.3146 3.10981 14.9533 3.046C14.8474 2.47218 14.544 1.9535 14.0958 1.57983C13.6476 1.20616 13.0829 1.00103 12.4993 1C11.8363 1 11.2004 1.26339 10.7316 1.73223C10.2627 2.20107 9.99934 2.83696 9.99934 3.5M1.99934 8.5C1.99933 8.08673 2.10176 7.6799 2.29749 7.31591C2.49322 6.95193 2.77612 6.64214 3.1209 6.41427C3.46567 6.1864 3.86156 6.04756 4.27314 6.01017C4.68472 5.97277 5.09914 6.038 5.47934 6.2M5.19934 14.751C4.52037 15.0483 3.75538 15.0837 3.05185 14.8504C2.34832 14.6171 1.75606 14.1316 1.38924 13.4875C1.02242 12.8435 0.907023 12.0864 1.06529 11.3623C1.22355 10.6382 1.64427 9.99831 2.24634 9.566M17.9993 8.5C17.9994 8.0866 17.897 7.67963 17.7012 7.31553C17.5054 6.95143 17.2224 6.64156 16.8775 6.41366C16.5326 6.18577 16.1365 6.04696 15.7248 6.00968C15.3131 5.97239 14.8986 6.03778 14.5183 6.2M14.7983 14.751C15.4774 15.0491 16.2428 15.0851 16.9469 14.852C17.6509 14.619 18.2437 14.1334 18.6108 13.4891C18.9779 12.8447 19.0933 12.0872 18.9348 11.3627C18.7763 10.6382 18.355 9.99816 17.7523 9.566" stroke="black" stroke-width="2" stroke-linecap="round" stroke-linejoin="round"/>
</svg>
