<svg width="19" height="20" viewBox="0 0 19 20" fill="none" xmlns="http://www.w3.org/2000/svg">
<path d="M0 10C0 15.2469 4.25315 19.5 9.5 19.5C14.7469 19.5 19 15.2469 19 10C19 4.75315 14.7469 0.5 9.5 0.5C4.25315 0.5 0 4.75315 0 10ZM17.1 10C17.1 12.0156 16.2993 13.9487 14.874 15.374C13.4487 16.7993 11.5156 17.6 9.5 17.6C7.48435 17.6 5.55126 16.7993 4.12599 15.374C2.70071 13.9487 1.9 12.0156 1.9 10C1.9 7.98435 2.70071 6.05126 4.12599 4.62599C5.55126 3.20071 7.48435 2.4 9.5 2.4C11.5156 2.4 13.4487 3.20071 14.874 4.62599C16.2993 6.05126 17.1 7.98435 17.1 10ZM15.2 10C15.2001 11.1275 14.8659 12.2296 14.2396 13.1671C13.6133 14.1046 12.723 14.8353 11.6814 15.2668C10.6398 15.6982 9.49358 15.8111 8.3878 15.5911C7.28202 15.3711 6.26631 14.8281 5.46915 14.0308L9.5 10V4.3C11.0117 4.3 12.4616 4.90053 13.5305 5.96949C14.5995 7.03845 15.2 8.48827 15.2 10Z" fill="#5F5E5B"/>
</svg>
