<svg width="20" height="20" viewBox="0 0 20 20" fill="none" xmlns="http://www.w3.org/2000/svg">
<path fill-rule="evenodd" clip-rule="evenodd" d="M10 2C8.60076 1.99974 7.22593 2.36649 6.01272 3.06363C4.79951 3.76077 3.79037 4.76392 3.08602 5.97295C2.38167 7.18199 2.00674 8.55462 1.99867 9.95383C1.99059 11.3531 2.34965 12.7299 3.04 13.947C3.50661 13.3406 4.10643 12.8496 4.79309 12.512C5.47974 12.1744 6.23484 11.9992 7 12H13C13.7652 11.9992 14.5203 12.1744 15.2069 12.512C15.8936 12.8496 16.4934 13.3406 16.96 13.947C17.6504 12.7299 18.0094 11.3531 18.0013 9.95383C17.9933 8.55462 17.6183 7.18199 16.914 5.97295C16.2096 4.76392 15.2005 3.76077 13.9873 3.06363C12.7741 2.36649 11.3992 1.99974 10 2ZM17.943 16.076C18.0683 15.9127 18.1883 15.7453 18.303 15.574C19.4116 13.9267 20.0026 11.9856 20 10C20 4.477 15.523 0 10 0C4.477 0 2.62606e-06 4.477 2.62606e-06 10C-0.0031487 12.1968 0.720042 14.3329 2.057 16.076L2.052 16.094L2.407 16.507C3.34489 17.6035 4.50939 18.4836 5.82023 19.0866C7.13108 19.6897 8.5571 20.0013 10 20C10.216 20 10.4307 19.9933 10.644 19.98C12.4484 19.8662 14.1877 19.2629 15.675 18.235C16.3863 17.7443 17.031 17.1635 17.593 16.507L17.948 16.094L17.943 16.076ZM10 4C9.20435 4 8.44129 4.31607 7.87868 4.87868C7.31607 5.44129 7 6.20435 7 7C7 7.79565 7.31607 8.55871 7.87868 9.12132C8.44129 9.68393 9.20435 10 10 10C10.7957 10 11.5587 9.68393 12.1213 9.12132C12.6839 8.55871 13 7.79565 13 7C13 6.20435 12.6839 5.44129 12.1213 4.87868C11.5587 4.31607 10.7957 4 10 4Z" fill="#5F5E5B"/>
</svg>
