<svg width="19" height="20" viewBox="0 0 19 20" fill="none" xmlns="http://www.w3.org/2000/svg">
<path d="M0 10C0 15.2469 4.25315 19.5 9.5 19.5C14.7469 19.5 19 15.2469 19 10C19 4.75315 14.7469 0.5 9.5 0.5C4.25315 0.5 0 4.75315 0 10ZM17.1 10C17.1 12.0156 16.2993 13.9487 14.874 15.374C13.4487 16.7993 11.5156 17.6 9.5 17.6C7.48435 17.6 5.55126 16.7993 4.12599 15.374C2.70071 13.9487 1.9 12.0156 1.9 10C1.9 7.98435 2.70071 6.05126 4.12599 4.62599C5.55126 3.20071 7.48435 2.4 9.5 2.4C11.5156 2.4 13.4487 3.20071 14.874 4.62599C16.2993 6.05126 17.1 7.98435 17.1 10ZM9.5 15.7C11.0117 15.7 12.4616 15.0995 13.5305 14.0305C14.5995 12.9616 15.2 11.5117 15.2 10C15.2 8.48827 14.5995 7.03845 13.5305 5.96949C12.4616 4.90053 11.0117 4.3 9.5 4.3C7.98827 4.3 6.53845 4.90053 5.46949 5.96949C4.40053 7.03845 3.8 8.48827 3.8 10C3.8 11.5117 4.40053 12.9616 5.46949 14.0305C6.53845 15.0995 7.98827 15.7 9.5 15.7Z" fill="#5F5E5B"/>
</svg>
