<svg width="44" height="36" viewBox="0 0 44 36" fill="none" xmlns="http://www.w3.org/2000/svg">
<path d="M15.7778 12.6471H28.2222M15.7778 18.7647H25.1111M31.3333 5C32.571 5 33.758 5.4834 34.6332 6.34386C35.5083 7.20432 36 8.37136 36 9.58824V21.8235C36 23.0404 35.5083 24.2074 34.6332 25.0679C33.758 25.9284 32.571 26.4118 31.3333 26.4118H23.5556L15.7778 31V26.4118H12.6667C11.429 26.4118 10.242 25.9284 9.36684 25.0679C8.49167 24.2074 8 23.0404 8 21.8235V9.58824C8 8.37136 8.49167 7.20432 9.36684 6.34386C10.242 5.4834 11.429 5 12.6667 5H31.3333Z" stroke="#5F5E5B" stroke-width="2" stroke-linecap="round" stroke-linejoin="round"/>
</svg>
