<svg width="20" height="16" viewBox="0 0 20 16" fill="none" xmlns="http://www.w3.org/2000/svg">
<path d="M3 0H17C17.2833 0 17.521 0.0960001 17.713 0.288C17.905 0.48 18.0007 0.717333 18 1C17.9993 1.28267 17.9033 1.52033 17.712 1.713C17.5207 1.90567 17.2833 2.00133 17 2H3C2.71666 2 2.47933 1.904 2.288 1.712C2.09666 1.52 2.00066 1.28267 2 1C1.99933 0.717333 2.09533 0.48 2.288 0.288C2.48066 0.0960001 2.718 0 3 0ZM3 16C2.71666 16 2.47933 15.904 2.288 15.712C2.09666 15.52 2.00066 15.2827 2 15V10H1.825C1.50833 10 1.25 9.879 1.05 9.637C0.849997 9.395 0.78333 9.116 0.849997 8.8L1.85 3.8C1.9 3.56667 2.01666 3.375 2.2 3.225C2.38333 3.075 2.59166 3 2.825 3H17.175C17.4083 3 17.6167 3.075 17.8 3.225C17.9833 3.375 18.1 3.56667 18.15 3.8L19.15 8.8C19.2167 9.11667 19.15 9.39567 18.95 9.637C18.75 9.87833 18.4917 9.99933 18.175 10H18V15C18 15.2833 17.904 15.521 17.712 15.713C17.52 15.905 17.2827 16.0007 17 16C16.7173 15.9993 16.48 15.9033 16.288 15.712C16.096 15.5207 16 15.2833 16 15V10H12V15C12 15.2833 11.904 15.521 11.712 15.713C11.52 15.905 11.2827 16.0007 11 16H3ZM4 14H10V10H4V14ZM3.05 8H16.95L16.35 5H3.65L3.05 8Z" fill="#5F5E5B"/>
</svg>
