<svg width="20" height="16" viewBox="0 0 20 16" fill="none" xmlns="http://www.w3.org/2000/svg">
<path d="M19.5 2V14C19.5 14.55 19.3141 15.021 18.9423 15.413C18.5706 15.805 18.1231 16.0007 17.6 16H2.4C1.8775 16 1.43037 15.8043 1.0586 15.413C0.686833 15.0217 0.500633 14.5507 0.5 14V2C0.5 1.45 0.6862 0.979333 1.0586 0.588C1.431 0.196666 1.87813 0.000666667 2.4 0H17.6C18.1225 0 18.5699 0.196 18.9423 0.588C19.3147 0.98 19.5006 1.45067 19.5 2ZM2.4 4H17.6V2H2.4V4ZM2.4 8V14H17.6V8H2.4Z" fill="#5F5E5B"/>
</svg>
