<svg width="30" height="29" viewBox="0 0 30 29" fill="none" xmlns="http://www.w3.org/2000/svg">
<path d="M8.77778 9.14706H21.2222M8.77778 15.2647H18.1111M24.3333 1.5C25.571 1.5 26.758 1.9834 27.6332 2.84386C28.5083 3.70432 29 4.87136 29 6.08824V18.3235C29 19.5404 28.5083 20.7074 27.6332 21.5679C26.758 22.4284 25.571 22.9118 24.3333 22.9118H16.5556L8.77778 27.5V22.9118H5.66667C4.42899 22.9118 3.242 22.4284 2.36684 21.5679C1.49167 20.7074 1 19.5404 1 18.3235V6.08824C1 4.87136 1.49167 3.70432 2.36684 2.84386C3.242 1.9834 4.42899 1.5 5.66667 1.5H24.3333Z" stroke="#5F5E5B" stroke-width="2" stroke-linecap="round" stroke-linejoin="round"/>
</svg>
